<svg width="48" height="64" viewBox="0 0 48 64" fill="none" xmlns="http://www.w3.org/2000/svg">
<g clip-path="url(#clip0_222_149)">
<path d="M14.7763 33.4559V45.3486C14.7757 45.5624 14.7198 45.7722 14.6144 45.9566C14.5089 46.141 14.3576 46.2935 14.176 46.3984C13.9944 46.5033 13.7889 46.5569 13.5805 46.5538C13.3721 46.5507 13.1682 46.491 12.9897 46.3807L9.96827 44.5273C9.53027 44.2579 9.1677 43.8767 8.91582 43.421C8.66394 42.9652 8.53133 42.4503 8.53089 41.9265V36.8692C8.53041 36.3451 8.39781 35.8301 8.14594 35.3741C7.89408 34.9181 7.53153 34.5367 7.09351 34.2669L1.4374 30.7725C0.999376 30.5027 0.636825 30.1213 0.384963 29.6653C0.133101 29.2093 0.000491682 28.6942 1.60169e-05 28.1701V1.21044C-0.00108294 0.99418 0.0543888 0.781575 0.160649 0.594787C0.266909 0.408 0.420068 0.253868 0.60416 0.148457C0.788253 0.0430469 0.996539 -0.00978296 1.20731 -0.0045254C1.41808 0.000732164 1.62362 0.0638846 1.8025 0.178349L3.86945 1.50532C4.29461 1.77831 4.6452 2.15761 4.88832 2.60764C5.13144 3.05767 5.25913 3.56367 5.2594 4.07818V24.1509C5.25971 24.6748 5.39226 25.1897 5.64415 25.6455C5.89604 26.1013 6.25869 26.4824 6.69679 26.7518L13.3461 30.8536C13.783 31.1241 14.1443 31.5058 14.3949 31.9618C14.6455 32.4178 14.7769 32.9325 14.7763 33.4559Z" fill="white"/>
<path d="M21.2485 12.1374L9.68907 5.01301C9.51057 4.90346 9.30699 4.84432 9.099 4.84159C8.89101 4.83886 8.68602 4.89264 8.50485 4.99746C8.32368 5.10229 8.17278 5.25443 8.06747 5.43843C7.96216 5.62243 7.9062 5.83174 7.90527 6.0451V20.3661C7.90561 20.8902 8.03816 21.4053 8.29003 21.8614C8.54191 22.3174 8.90454 22.6988 9.34266 22.9685L15.9805 27.0629C16.4187 27.3325 16.7814 27.7139 17.0333 28.1699C17.2852 28.6259 17.4177 29.1411 17.4179 29.6653V59.966C17.4183 60.4899 17.5509 61.0048 17.8028 61.4605C18.0547 61.9163 18.4173 62.2974 18.8553 62.5669L20.8935 63.8245C21.0719 63.9349 21.2757 63.9948 21.4841 63.9979C21.6925 64.0011 21.8979 63.9474 22.0795 63.8425C22.261 63.7375 22.4122 63.585 22.5175 63.4005C22.6227 63.2161 22.6784 63.0062 22.6787 62.7924L22.683 14.7442C22.6834 14.2196 22.5516 13.7039 22.3002 13.2471C22.0488 12.7903 21.6865 12.408 21.2485 12.1374Z" fill="white"/>
<path d="M33.2236 33.4558V45.3485C33.2244 45.562 33.2803 45.7716 33.3857 45.9558C33.4911 46.14 33.6422 46.2923 33.8236 46.3972C34.005 46.5021 34.2102 46.5558 34.4184 46.5528C34.6266 46.5499 34.8303 46.4905 35.0089 46.3806L38.0274 44.5154C38.4654 44.246 38.8279 43.8648 39.0798 43.4091C39.3317 42.9533 39.4643 42.4384 39.4648 41.9145V36.8691C39.4651 36.345 39.5976 35.8299 39.8495 35.3738C40.1014 34.9178 40.464 34.5364 40.9021 34.2667L46.5712 30.7724C47.0092 30.5026 47.3718 30.1212 47.6236 29.6652C47.8755 29.2092 48.0081 28.6941 48.0086 28.17V1.21033C48.0098 0.993841 47.9544 0.780978 47.8481 0.593972C47.7417 0.406966 47.5884 0.252677 47.4041 0.14722C47.2198 0.0417632 47.0112 -0.0109922 46.8002 -0.00553632C46.5892 -8.03927e-05 46.3836 0.0633868 46.2046 0.178236L44.1391 1.50521C43.7137 1.77789 43.3629 2.15712 43.1197 2.60722C42.8766 3.05732 42.749 3.56348 42.7492 4.07807V24.1508C42.7487 24.6747 42.6161 25.1895 42.3642 25.6453C42.1124 26.1011 41.7498 26.4822 41.3118 26.7516L34.6639 30.8535C34.2251 31.1227 33.8619 31.5039 33.6095 31.96C33.3571 32.416 33.2241 32.9314 33.2236 33.4558Z" fill="white"/>
<path d="M26.7509 12.1374L38.3104 5.01304C38.489 4.90124 38.6935 4.84026 38.9028 4.83638C39.1121 4.83249 39.3186 4.88584 39.5011 4.99093C39.6836 5.09602 39.8355 5.24907 39.9413 5.43434C40.047 5.61962 40.1028 5.83044 40.1028 6.04513V20.3661C40.1023 20.8902 39.9697 21.4053 39.7178 21.8613C39.466 22.3173 39.1034 22.6987 38.6654 22.9685L32.0247 27.06C31.5863 27.3294 31.2234 27.7107 30.9715 28.1668C30.7196 28.6229 30.5872 29.1381 30.5873 29.6623V59.966C30.5869 60.4899 30.4542 61.0048 30.2024 61.4605C29.9505 61.9163 29.5879 62.2974 29.1499 62.5669L27.1103 63.8246C26.9318 63.935 26.728 63.9948 26.5196 63.998C26.3112 64.0011 26.1058 63.9475 25.9242 63.8425C25.7427 63.7376 25.5916 63.585 25.4863 63.4006C25.381 63.2161 25.3254 63.0062 25.325 62.7925L25.3164 14.7442C25.3157 14.2196 25.4475 13.7038 25.6989 13.2469C25.9503 12.7901 26.3127 12.4079 26.7509 12.1374Z" fill="white"/>
</g>
<defs>
<clipPath id="clip0_222_149">
<rect width="48" height="64" fill="white"/>
</clipPath>
</defs>
</svg>
