<svg width="496" height="692" viewBox="0 0 496 692" fill="none" xmlns="http://www.w3.org/2000/svg">
<g clip-path="url(#clip0_1_27)">
<g opacity="0.11">
<path d="M252.626 406.725C257.872 403.702 263.82 402.111 269.874 402.111C275.929 402.111 281.877 403.702 287.123 406.725L492.742 525.141C493.476 525.569 494.085 526.182 494.508 526.918C494.932 527.654 495.154 528.489 495.154 529.338C495.154 530.187 494.932 531.022 494.508 531.758C494.085 532.494 493.476 533.107 492.742 533.535L285.41 653.216C280.79 655.87 275.556 657.266 270.228 657.266C264.9 657.266 259.666 655.87 255.046 653.216L47.3046 533.628C46.5659 533.204 45.9521 532.593 45.5252 531.856C45.0984 531.119 44.8737 530.282 44.8737 529.431C44.8737 528.579 45.0984 527.743 45.5252 527.006C45.9521 526.269 46.5659 525.658 47.3046 525.234L252.626 406.725Z" fill="url(#paint0_linear_1_27)"/>
</g>
<g opacity="0.11">
<path d="M252.626 372.203C257.87 369.176 263.819 367.583 269.874 367.583C275.93 367.583 281.879 369.176 287.123 372.203L492.742 490.601C493.476 491.031 494.084 491.645 494.507 492.383C494.93 493.121 495.152 493.957 495.152 494.807C495.152 495.657 494.93 496.492 494.507 497.23C494.084 497.968 493.476 498.583 492.742 499.013L285.41 618.676C280.779 621.346 275.528 622.752 270.182 622.752C264.836 622.752 259.584 621.346 254.953 618.676L47.3046 499.013C46.5663 498.586 45.9532 497.973 45.5269 497.235C45.1006 496.497 44.8762 495.659 44.8762 494.807C44.8762 493.954 45.1006 493.117 45.5269 492.379C45.9532 491.64 46.5663 491.027 47.3046 490.601L252.626 372.203Z" fill="url(#paint1_linear_1_27)"/>
</g>
<g opacity="0.11">
<path d="M252.626 372.203C257.87 369.176 263.819 367.583 269.874 367.583C275.93 367.583 281.879 369.176 287.123 372.203L492.742 490.601C493.476 491.031 494.084 491.645 494.507 492.383C494.93 493.121 495.152 493.957 495.152 494.807C495.152 495.657 494.93 496.492 494.507 497.23C494.084 497.968 493.476 498.583 492.742 499.013L285.41 618.676C280.779 621.346 275.528 622.752 270.182 622.752C264.836 622.752 259.584 621.346 254.953 618.676L47.3046 499.013C46.5663 498.586 45.9532 497.973 45.5269 497.235C45.1006 496.497 44.8762 495.659 44.8762 494.807C44.8762 493.954 45.1006 493.117 45.5269 492.379C45.9532 491.64 46.5663 491.027 47.3046 490.601L252.626 372.203Z" fill="url(#paint2_linear_1_27)"/>
</g>
<path d="M47.3046 494.23L255.046 613.782C259.677 616.452 264.929 617.858 270.275 617.858C275.621 617.858 280.872 616.452 285.503 613.782L492.835 494.118C493.622 493.69 494.268 493.044 494.697 492.257C495.325 493.38 495.482 494.707 495.133 495.945C494.784 497.184 493.958 498.234 492.835 498.864L285.503 618.527C280.872 621.197 275.621 622.603 270.275 622.603C264.929 622.603 259.677 621.197 255.046 618.527L47.3046 499.013C46.1858 498.379 45.3625 497.33 45.0139 496.092C44.6653 494.855 44.8194 493.53 45.4429 492.406C45.885 493.173 46.5289 493.804 47.3046 494.23Z" fill="url(#paint3_linear_1_27)"/>
<path opacity="0.5" d="M47.3046 490.601L252.626 372.203C257.87 369.176 263.819 367.583 269.874 367.583C275.93 367.583 281.878 369.176 287.123 372.203L492.742 490.601C493.483 491.024 494.097 491.637 494.523 492.376C494.948 493.115 495.169 493.954 495.162 494.807V564.167C495.169 565.02 494.948 565.859 494.523 566.598C494.097 567.337 493.483 567.95 492.742 568.373L285.41 688.036C280.779 690.706 275.527 692.112 270.182 692.112C264.836 692.112 259.584 690.706 254.953 688.036L47.3046 568.373C46.5654 567.953 45.9515 567.343 45.5261 566.607C45.1007 565.871 44.8792 565.035 44.8844 564.185V494.807C44.8779 493.954 45.0986 493.115 45.5239 492.376C45.9493 491.637 46.5639 491.024 47.3046 490.601Z" fill="url(#paint4_linear_1_27)"/>
<g opacity="0.5">
<path d="M481.293 232.218C486.257 233.458 491.16 234.804 496 236.256V271.801C491.178 270.387 486.282 269.047 481.293 267.744V232.218Z" fill="#95F364"/>
<path opacity="0.5" d="M447.206 233.688C452.549 234.711 457.817 235.809 462.993 236.945V263.371C457.817 262.217 452.555 261.132 447.206 260.114V233.688Z" fill="#95F364"/>
<path d="M410.997 204.712C416.582 205.456 422.167 206.256 427.752 207.112V256.82C422.167 255.945 416.582 255.145 410.997 254.419V204.712Z" fill="#95F364"/>
<path opacity="0.5" d="M372.889 173.521C378.79 173.949 384.636 174.433 390.426 175.01V251.982C384.636 251.405 378.79 250.921 372.889 250.493V173.521Z" fill="#95F364"/>
<path opacity="0.5" d="M333.236 190.047C339.441 190.134 345.529 190.301 351.499 190.549V249.376C345.467 249.134 339.379 248.948 333.236 248.855V190.047Z" fill="#95F364"/>
<path d="M293.099 128.578C299.068 128.329 305.1 128.162 311.194 128.075V248.762C305.1 248.861 299.068 249.029 293.099 249.264V128.578Z" fill="#95F364"/>
<path d="M254.32 153.422C260.073 152.864 265.9 152.38 271.764 151.952V250.455C265.9 250.865 260.073 251.349 254.32 251.926V153.422Z" fill="#95F364"/>
<path d="M217.18 121.264C222.765 120.408 228.22 119.607 233.935 118.9V254.233C228.313 254.953 222.728 255.747 217.18 256.615V121.264Z" fill="#95F364"/>
</g>
<path opacity="0.2" d="M270.014 568.224C342.283 568.224 400.87 534.412 400.87 492.704C400.87 450.995 342.283 417.184 270.014 417.184C197.744 417.184 139.158 450.995 139.158 492.704C139.158 534.412 197.744 568.224 270.014 568.224Z" fill="#95F364"/>
<path d="M270.014 535.544C311.017 535.544 344.257 516.364 344.257 492.704C344.257 469.044 311.017 449.863 270.014 449.863C229.011 449.863 195.771 469.044 195.771 492.704C195.771 516.364 229.011 535.544 270.014 535.544Z" fill="#95F364"/>
<path d="M365.878 374.483L356.612 378.233L388.621 457.273L397.888 453.523L365.878 374.483Z" fill="#95F364"/>
<path d="M190.316 368.727C207.464 368.478 221.164 354.381 220.915 337.239C220.667 320.096 206.564 306.401 189.416 306.65C172.268 306.898 158.568 320.996 158.817 338.138C159.065 355.28 173.168 368.975 190.316 368.727Z" fill="url(#paint5_radial_1_27)"/>
<path d="M350.195 383.611C350.195 443.852 314.303 492.704 270.014 492.704C225.725 492.704 189.889 443.852 189.889 383.611C189.889 323.37 225.781 305.3 270.051 305.3C314.321 305.3 350.195 323.351 350.195 383.611Z" fill="url(#paint6_radial_1_27)"/>
<g style="mix-blend-mode:lighten">
<path d="M350.195 383.611C350.195 443.852 314.303 492.704 270.014 492.704C225.725 492.704 189.889 443.852 189.889 383.611C189.889 323.37 225.781 305.3 270.051 305.3C314.321 305.3 350.195 323.351 350.195 383.611Z" fill="url(#paint7_linear_1_27)"/>
</g>
<path d="M270.014 369.281C300.232 369.281 324.728 355.142 324.728 337.7C324.728 320.258 300.232 306.118 270.014 306.118C239.796 306.118 215.3 320.258 215.3 337.7C215.3 355.142 239.796 369.281 270.014 369.281Z" fill="#3B519F" fill-opacity="0.5"/>
<path d="M231.329 323.817C252.701 311.478 287.346 311.478 308.699 323.817C317.542 328.916 322.699 335.318 324.244 341.943C326.422 332.526 321.247 322.644 308.699 315.405C287.346 303.066 252.701 303.066 231.329 315.405C218.8 322.644 213.625 332.526 215.803 341.943C217.348 335.262 222.505 328.879 231.329 323.817Z" fill="#3B519F" fill-opacity="0.2"/>
<path d="M206.867 262.664L216.771 245.617C222.713 239.341 227.105 231.764 229.598 223.489L239.632 206.238L225.26 197.956C224.806 197.638 224.327 197.358 223.826 197.119C219.731 195.258 214.276 195.704 208.3 199.147C195.567 206.591 185.234 224.401 185.234 239.103C185.234 246.547 187.803 251.628 191.974 253.991L206.867 262.664Z" fill="url(#paint8_radial_1_27)"/>
<path d="M239.388 243.745C248.4 228.141 248.401 211.276 239.39 206.075C230.379 200.875 215.768 209.308 206.756 224.911C197.745 240.515 197.744 257.38 206.755 262.581C215.766 267.782 230.376 259.349 239.388 243.745Z" fill="#BCBEFF"/>
<path d="M273.197 344.065C318.354 344.065 354.961 307.47 354.961 262.329C354.961 217.187 318.354 180.593 273.197 180.593C228.041 180.593 191.434 217.187 191.434 262.329C191.434 307.47 228.041 344.065 273.197 344.065Z" fill="url(#paint9_radial_1_27)"/>
<g style="mix-blend-mode:lighten">
<path d="M273.197 344.065C318.354 344.065 354.961 307.47 354.961 262.329C354.961 217.187 318.354 180.593 273.197 180.593C228.041 180.593 191.434 217.187 191.434 262.329C191.434 307.47 228.041 344.065 273.197 344.065Z" fill="url(#paint10_linear_1_27)"/>
</g>
<path d="M318.957 317.601L328.861 300.554C334.803 294.285 339.195 286.714 341.688 278.445L351.722 261.175L337.294 252.893C336.836 252.588 336.357 252.314 335.861 252.075C331.765 250.213 326.31 250.642 320.334 254.103C307.601 261.547 297.269 279.338 297.269 294.059C297.269 301.503 299.838 306.565 304.008 308.947L318.957 317.601Z" fill="url(#paint11_radial_1_27)"/>
<path style="mix-blend-mode:lighten" d="M318.957 317.601L328.861 300.554C334.803 294.285 339.195 286.714 341.688 278.445L351.722 261.175L337.294 252.893C336.836 252.588 336.357 252.314 335.861 252.075C331.765 250.213 326.31 250.642 320.334 254.103C307.601 261.547 297.269 279.338 297.269 294.059C297.269 301.503 299.838 306.565 304.008 308.947L318.957 317.601Z" fill="url(#paint12_linear_1_27)"/>
<path d="M352.72 297.353C361.732 281.678 361.699 264.755 352.646 259.554C343.594 254.353 328.95 262.845 319.938 278.52C310.926 294.195 310.959 311.118 320.012 316.319C329.064 321.52 343.708 313.029 352.72 297.353Z" fill="#BCBEFF"/>
<path d="M313.149 302.787C313.149 288.085 323.481 270.201 336.233 262.831C339.812 260.54 344.04 259.476 348.278 259.798C343.731 259.105 339.089 260.119 335.246 262.645C322.494 270.089 312.162 287.899 312.162 302.601C312.162 312.223 316.574 318.085 323.183 318.959C317.095 317.619 313.149 311.888 313.149 302.787Z" fill="white"/>
<path d="M351.666 279.766C351.666 290.281 344.219 303.066 335.172 308.333C326.124 313.6 318.678 309.319 318.678 298.805C318.678 288.29 326.124 275.505 335.172 270.238C344.219 264.971 351.666 269.252 351.666 279.766Z" fill="#3B519F"/>
<path d="M344.648 268.247C346.564 270.796 347.52 273.939 347.347 277.124C347.347 287.638 339.9 300.424 330.853 305.672C328.07 307.534 324.677 308.254 321.377 307.682C324.318 311.162 329.401 311.664 335.172 308.333C344.275 303.066 351.666 290.281 351.666 279.766C351.666 273.327 348.892 269.233 344.648 268.247Z" fill="#393091" fill-opacity="0.1"/>
<path d="M238.176 316.384C248.76 311.98 251.155 293.556 243.525 275.233C235.895 256.91 221.13 245.626 210.547 250.031C199.963 254.435 197.568 272.858 205.198 291.181C212.828 309.504 227.593 320.788 238.176 316.384Z" fill="#3B519F"/>
<path d="M226.768 309.971C213.885 300.126 205.154 279.115 207.239 263.036C208.077 256.485 210.609 251.777 214.165 249.153C207.425 249.785 202.343 255.48 201.04 265.381C198.955 281.46 207.705 302.471 220.587 312.316C228.22 318.141 235.592 318.755 240.768 314.94C236.56 315.33 231.72 313.749 226.768 309.971Z" fill="#3B519F" fill-opacity="0.1"/>
<path d="M221.704 311.794C208.822 301.95 200.072 280.939 202.157 264.86C203.125 257.416 206.252 252.354 210.59 249.972C205.675 251.981 202.101 257.267 201.04 265.325C198.955 281.404 207.705 302.415 220.587 312.26C227.513 317.545 234.196 318.513 239.204 315.814C234.345 317.899 228.127 316.689 221.704 311.794Z" fill="#3B519F" fill-opacity="0.1"/>
<path d="M391.692 382.42C390.499 388.443 387.547 393.977 383.208 398.323C378.869 402.669 373.338 405.63 367.316 406.833C361.293 408.037 355.048 407.428 349.372 405.083C343.695 402.738 338.842 398.763 335.425 393.661C332.009 388.559 330.183 382.558 330.178 376.419C330.173 370.279 331.989 364.275 335.398 359.168C338.806 354.06 343.653 350.077 349.326 347.724C354.998 345.37 361.242 344.751 367.267 345.944C375.344 347.544 382.454 352.286 387.035 359.126C391.615 365.967 393.29 374.345 391.692 382.42Z" fill="url(#paint13_radial_1_27)"/>
<g style="mix-blend-mode:lighten">
<path d="M391.692 382.42C390.499 388.443 387.547 393.977 383.208 398.323C378.869 402.669 373.338 405.63 367.316 406.833C361.293 408.037 355.048 407.428 349.372 405.083C343.695 402.738 338.842 398.763 335.425 393.661C332.009 388.559 330.183 382.558 330.178 376.419C330.173 370.279 331.989 364.275 335.398 359.168C338.806 354.06 343.653 350.077 349.326 347.724C354.998 345.37 361.242 344.751 367.267 345.944C375.344 347.544 382.454 352.286 387.035 359.126C391.615 365.967 393.29 374.345 391.692 382.42Z" fill="url(#paint14_linear_1_27)"/>
</g>
<path d="M410.755 479.23C408.986 493.969 395.955 521.903 384.171 520.507C372.386 519.112 366.28 488.87 368.049 474.131C369.817 459.392 380.801 448.56 392.585 449.938C404.369 451.315 412.524 464.472 410.755 479.23Z" fill="url(#paint15_radial_1_27)"/>
<path style="mix-blend-mode:lighten" d="M410.755 479.23C408.986 493.969 395.955 521.903 384.171 520.507C372.386 519.112 366.28 488.87 368.049 474.131C369.817 459.392 380.801 448.56 392.585 449.938C404.369 451.315 412.524 464.472 410.755 479.23Z" fill="url(#paint16_linear_1_27)"/>
<path d="M107.697 384.337C106.576 384.344 105.485 383.975 104.6 383.287C103.716 382.599 103.088 381.633 102.819 380.546C102.551 379.458 102.656 378.311 103.119 377.291C103.581 376.27 104.374 375.435 105.37 374.92L169.485 341.422C170.658 340.807 172.026 340.684 173.29 341.078C174.554 341.473 175.609 342.353 176.224 343.525C176.839 344.697 176.962 346.065 176.568 347.329C176.173 348.592 175.293 349.647 174.12 350.262L110.005 383.76C109.295 384.14 108.502 384.338 107.697 384.337Z" fill="#95F364"/>
<path d="M108.832 402.947C95.8006 410.093 65.4743 415.732 59.7776 405.311C54.0809 394.889 75.1176 372.389 88.1492 365.243C101.181 358.097 116.372 360.758 122.087 371.18C127.802 381.601 121.864 395.819 108.832 402.947Z" fill="url(#paint17_radial_1_27)"/>
<path style="mix-blend-mode:lighten" d="M108.832 402.947C95.8006 410.093 65.4743 415.732 59.7776 405.311C54.0809 394.889 75.1176 372.389 88.1492 365.243C101.181 358.097 116.372 360.758 122.087 371.18C127.802 381.601 121.864 395.819 108.832 402.947Z" fill="url(#paint18_linear_1_27)"/>
<g opacity="0.5">
<path opacity="0.5" d="M104.848 151.636C151.278 137.659 178.905 190.233 151.781 240.964C128.752 283.954 72.6044 315.033 57.9719 269.847C49.3338 243.272 56.4825 178.118 100.399 153.534C88.5588 159.657 79.9207 168.31 71.3571 182.473C87.5535 202.385 88.8753 204.023 102.856 220.102C119.406 181.021 120.765 177.801 133.015 151.356C123.904 148.024 113.891 148.124 104.848 151.636ZM101.609 152.976L100.548 153.478L101.609 152.976ZM103.973 151.971L104.737 151.673L103.973 151.971ZM102.856 152.436L101.758 152.901L102.856 152.436ZM102.856 152.436L103.75 152.064L102.856 152.436Z" fill="#95F364"/>
<path d="M26.3611 201.492C29.0791 198.639 31.9833 195.841 35.0736 193.099V328.451C31.9833 331.186 29.0791 334.034 26.3611 336.844V201.492Z" fill="#95F364"/>
<path d="M12.4543 266.721C14.4171 263.627 16.5424 260.639 18.8212 257.769V345.516C16.5467 348.389 14.4216 351.377 12.4543 354.468V266.721Z" fill="#95F364"/>
<path opacity="0.5" d="M0 368.723L0.148932 369.039L0.316481 360.162L0 359.678V368.723ZM0 394.908V259.574C0 258.7 0 257.825 0 256.969C0.235033 250.774 1.30585 244.639 3.18343 238.731V374.064C1.30585 379.972 0.235033 386.107 0 392.302C0 393.177 0 394.033 0 394.908Z" fill="#95F364"/>
<path d="M0 368.723L0.148932 369.039L0.316481 360.162L0 359.678V368.723Z" fill="#95F364"/>
<path d="M100.529 153.478H100.38H100.529ZM104.718 151.617H104.83H104.718ZM101.739 152.845H101.59H101.739ZM103.731 152.008H103.955H103.731Z" fill="#95F364"/>
<path d="M102.856 152.436C112.375 148.121 123.212 147.733 133.015 151.356C115.702 189.47 113.896 193.471 102.856 220.102C85.8036 200.264 83.1787 197.268 71.3572 182.473C74.7082 176.89 84.8728 160.01 102.856 152.436Z" fill="#95F364"/>
<path opacity="0.5" d="M210.367 485.353C196.442 489.484 187.506 481.017 184.304 478.523C158.743 456.879 136.347 430.472 110.694 408.921C103.117 402.556 98.4628 405.199 95.8006 405.888C47.9748 424.87 47.9748 424.87 40.3048 413.332C26.2493 388.468 25.7466 386.458 19.2308 370.919C17.7415 367.364 12.6778 361.986 10.4252 362.265C-0.297884 365.299 1.11697 367.495 0.130297 368.779V359.734C12.7895 354.858 14.0927 354.282 19.2308 366.062C42.818 416.142 46.895 415.006 52.4055 413.722C102.67 393.586 102.13 395.112 114.957 408.381C137.148 431.495 181.976 476.476 195.734 480.049C200.723 480.474 205.749 480.116 210.627 478.988C259.216 462.704 278.503 452.469 326.05 431.998L330.294 438.902C312.702 446.569 259.552 467.506 210.516 482.915L210.367 485.353ZM362.278 539.918V404.566C347.384 405.422 332.063 405.794 316.574 405.664C140.629 404.268 0.0930638 339.114 0.0930638 259.574V394.908C-1.88202e-05 474.447 140.536 539.694 316.481 541.016C331.97 541.127 347.235 540.755 362.184 539.918H362.278Z" fill="#95F364"/>
<path d="M210.367 485.353C197.838 488.554 185.998 491.587 112.313 412.327C103.005 403.022 103.005 403.022 55.1235 422.023C49.6875 423.344 41.4776 425.335 18.8399 371.384C11.7656 355.454 0.111699 368.593 0 368.723V359.679C3.12656 357.742 6.56589 356.363 10.1646 355.603C11.2532 355.282 12.4227 355.381 13.4411 355.882C15.0422 356.701 16.6432 358.58 19.4356 364.517C32.4672 392.283 32.4672 392.283 41.7755 407.469C47.3604 415.676 47.3604 415.676 92.2263 397.848C95.298 397.029 101.683 395.298 111.308 402.984C138.358 424.553 160.381 451.538 187.096 473.498C197.112 480.626 203.162 484.925 326.068 431.998L330.313 438.902C312.758 446.644 259.254 469.925 210.367 485.353Z" fill="#95F364"/>
</g>
</g>
<defs>
<linearGradient id="paint0_linear_1_27" x1="495.162" y1="529.682" x2="44.8658" y2="529.682" gradientUnits="userSpaceOnUse">
<stop stop-color="#5761D7"/>
<stop offset="0.07" stop-color="#5472D8"/>
<stop offset="0.28" stop-color="#4E9CDB"/>
<stop offset="0.48" stop-color="#49BDDD"/>
<stop offset="0.67" stop-color="#45D5DF"/>
<stop offset="0.85" stop-color="#43E3E0"/>
<stop offset="1" stop-color="#42E8E0"/>
</linearGradient>
<linearGradient id="paint1_linear_1_27" x1="495.162" y1="495.049" x2="44.8659" y2="495.049" gradientUnits="userSpaceOnUse">
<stop stop-color="#5761D7"/>
<stop offset="0.07" stop-color="#5472D8"/>
<stop offset="0.28" stop-color="#4E9CDB"/>
<stop offset="0.48" stop-color="#49BDDD"/>
<stop offset="0.67" stop-color="#45D5DF"/>
<stop offset="0.85" stop-color="#43E3E0"/>
<stop offset="1" stop-color="#42E8E0"/>
</linearGradient>
<linearGradient id="paint2_linear_1_27" x1="495.162" y1="495.049" x2="44.8659" y2="495.049" gradientUnits="userSpaceOnUse">
<stop stop-color="#5761D7"/>
<stop offset="0.07" stop-color="#5472D8"/>
<stop offset="0.28" stop-color="#4E9CDB"/>
<stop offset="0.48" stop-color="#49BDDD"/>
<stop offset="0.67" stop-color="#45D5DF"/>
<stop offset="0.85" stop-color="#43E3E0"/>
<stop offset="1" stop-color="#42E8E0"/>
</linearGradient>
<linearGradient id="paint3_linear_1_27" x1="495.144" y1="557.467" x2="44.8844" y2="557.467" gradientUnits="userSpaceOnUse">
<stop stop-color="#5761D7"/>
<stop offset="0.07" stop-color="#5472D8"/>
<stop offset="0.28" stop-color="#4E9CDB"/>
<stop offset="0.48" stop-color="#49BDDD"/>
<stop offset="0.67" stop-color="#45D5DF"/>
<stop offset="0.85" stop-color="#43E3E0"/>
<stop offset="1" stop-color="#42E8E0"/>
</linearGradient>
<linearGradient id="paint4_linear_1_27" x1="495.162" y1="529.738" x2="44.8658" y2="529.738" gradientUnits="userSpaceOnUse">
<stop stop-color="#5761D7"/>
<stop offset="0.07" stop-color="#5472D8"/>
<stop offset="0.28" stop-color="#4E9CDB"/>
<stop offset="0.48" stop-color="#49BDDD"/>
<stop offset="0.67" stop-color="#45D5DF"/>
<stop offset="0.85" stop-color="#43E3E0"/>
<stop offset="1" stop-color="#42E8E0"/>
</linearGradient>
<radialGradient id="paint5_radial_1_27" cx="0" cy="0" r="1" gradientUnits="userSpaceOnUse" gradientTransform="translate(338.116 237.022) rotate(11.261) scale(179.622 179.565)">
<stop stop-color="#C0BFF6"/>
<stop offset="1" stop-color="#393091"/>
</radialGradient>
<radialGradient id="paint6_radial_1_27" cx="0" cy="0" r="1" gradientUnits="userSpaceOnUse" gradientTransform="translate(320.028 367.696) scale(138.108 187.621)">
<stop stop-color="#C0BFF6"/>
<stop offset="1" stop-color="#393091"/>
</radialGradient>
<linearGradient id="paint7_linear_1_27" x1="272.603" y1="493.238" x2="272.603" y2="305.695" gradientUnits="userSpaceOnUse">
<stop stop-color="#42E6DF"/>
<stop offset="0.14" stop-color="#40B6CB"/>
<stop offset="0.27" stop-color="#3E8DB9"/>
<stop offset="0.41" stop-color="#3C6BAA"/>
<stop offset="0.55" stop-color="#3B519F"/>
<stop offset="0.69" stop-color="#3A3F97"/>
<stop offset="0.84" stop-color="#393493"/>
<stop offset="1" stop-color="#393091"/>
</linearGradient>
<radialGradient id="paint8_radial_1_27" cx="0" cy="0" r="1" gradientUnits="userSpaceOnUse" gradientTransform="translate(189.311 135.463) scale(97.0107 96.9775)">
<stop stop-color="#C0BFF6"/>
<stop offset="1" stop-color="#393091"/>
</radialGradient>
<radialGradient id="paint9_radial_1_27" cx="0" cy="0" r="1" gradientUnits="userSpaceOnUse" gradientTransform="translate(324.225 250.213) scale(138.19 138.143)">
<stop stop-color="#C0BFF6"/>
<stop offset="1" stop-color="#393091"/>
</radialGradient>
<linearGradient id="paint10_linear_1_27" x1="261.823" y1="343.264" x2="284.576" y2="181.372" gradientUnits="userSpaceOnUse">
<stop stop-color="#42E6DF"/>
<stop offset="0.14" stop-color="#40B6CB"/>
<stop offset="0.27" stop-color="#3E8DB9"/>
<stop offset="0.41" stop-color="#3C6BAA"/>
<stop offset="0.55" stop-color="#3B519F"/>
<stop offset="0.69" stop-color="#3A3F97"/>
<stop offset="0.84" stop-color="#393493"/>
<stop offset="1" stop-color="#393091"/>
</linearGradient>
<radialGradient id="paint11_radial_1_27" cx="0" cy="0" r="1" gradientUnits="userSpaceOnUse" gradientTransform="translate(323.127 248.743) scale(65.6232 65.6008)">
<stop stop-color="#C0BFF6"/>
<stop offset="1" stop-color="#393091"/>
</radialGradient>
<linearGradient id="paint12_linear_1_27" x1="309.909" y1="314.307" x2="332.961" y2="250.971" gradientUnits="userSpaceOnUse">
<stop stop-color="#42E6DF"/>
<stop offset="0.14" stop-color="#40B6CB"/>
<stop offset="0.27" stop-color="#3E8DB9"/>
<stop offset="0.41" stop-color="#3C6BAA"/>
<stop offset="0.55" stop-color="#3B519F"/>
<stop offset="0.69" stop-color="#3A3F97"/>
<stop offset="0.84" stop-color="#393493"/>
<stop offset="1" stop-color="#393091"/>
</linearGradient>
<radialGradient id="paint13_radial_1_27" cx="0" cy="0" r="1" gradientUnits="userSpaceOnUse" gradientTransform="translate(379.659 356.146) rotate(11.1963) scale(64.766 64.7456)">
<stop stop-color="#C0BFF6"/>
<stop offset="1" stop-color="#393091"/>
</radialGradient>
<linearGradient id="paint14_linear_1_27" x1="336.147" y1="394.64" x2="386.369" y2="358.124" gradientUnits="userSpaceOnUse">
<stop stop-color="#42E6DF"/>
<stop offset="0.14" stop-color="#40B6CB"/>
<stop offset="0.27" stop-color="#3E8DB9"/>
<stop offset="0.41" stop-color="#3C6BAA"/>
<stop offset="0.55" stop-color="#3B519F"/>
<stop offset="0.69" stop-color="#3A3F97"/>
<stop offset="0.84" stop-color="#393493"/>
<stop offset="1" stop-color="#393091"/>
</linearGradient>
<radialGradient id="paint15_radial_1_27" cx="0" cy="0" r="1" gradientUnits="userSpaceOnUse" gradientTransform="translate(421.421 458.078) rotate(6.89009) scale(54.9982 90.6167)">
<stop stop-color="#C0BFF6"/>
<stop offset="1" stop-color="#393091"/>
</radialGradient>
<linearGradient id="paint16_linear_1_27" x1="364.459" y1="482.897" x2="407.09" y2="488.134" gradientUnits="userSpaceOnUse">
<stop stop-color="#42E6DF"/>
<stop offset="0.14" stop-color="#40B6CB"/>
<stop offset="0.27" stop-color="#3E8DB9"/>
<stop offset="0.41" stop-color="#3C6BAA"/>
<stop offset="0.55" stop-color="#3B519F"/>
<stop offset="0.69" stop-color="#3A3F97"/>
<stop offset="0.84" stop-color="#393493"/>
<stop offset="1" stop-color="#393091"/>
</linearGradient>
<radialGradient id="paint17_radial_1_27" cx="0" cy="0" r="1" gradientUnits="userSpaceOnUse" gradientTransform="translate(167.343 372.349) rotate(61.1809) scale(54.7676 91.0244)">
<stop stop-color="#C0BFF6"/>
<stop offset="1" stop-color="#393091"/>
</radialGradient>
<linearGradient id="paint18_linear_1_27" x1="128.754" y1="413.08" x2="81.2427" y2="400.686" gradientUnits="userSpaceOnUse">
<stop stop-color="#42E6DF"/>
<stop offset="0.14" stop-color="#40B6CB"/>
<stop offset="0.27" stop-color="#3E8DB9"/>
<stop offset="0.41" stop-color="#3C6BAA"/>
<stop offset="0.55" stop-color="#3B519F"/>
<stop offset="0.69" stop-color="#3A3F97"/>
<stop offset="0.84" stop-color="#393493"/>
<stop offset="1" stop-color="#393091"/>
</linearGradient>
<clipPath id="clip0_1_27">
<rect width="496" height="692" fill="white"/>
</clipPath>
</defs>
</svg>
