<svg width="184" height="200" viewBox="0 0 184 200" fill="none" xmlns="http://www.w3.org/2000/svg">
<path d="M105.634 106.067L88.2012 95.4749V116.659L105.634 127.251L123.067 116.659V95.4749L105.634 106.067Z" fill="#42E8E0" fill-opacity="0.2"/>
<path d="M105.634 127.251L88.2012 116.659V95.4749L105.634 106.067V127.251Z" fill="#42E8E0" fill-opacity="0.2"/>
<path d="M123.067 116.659L105.634 127.251V106.067L123.067 95.4749V116.659Z" fill="#2FD3C7" fill-opacity="0.2"/>
<path d="M105.634 106.067L88.2012 95.4753L105.634 84.8833L123.067 95.4753L105.634 106.067Z" fill="#42E8E0" fill-opacity="0.2"/>
<path d="M105.634 106.067L88.9537 95.9326L88.2012 96.3976L105.634 106.99L123.067 96.3976L122.308 95.9399L105.634 106.067Z" fill="white" fill-opacity="0.2"/>
<path d="M128.28 119.667L110.847 109.075V130.251L128.28 140.843L145.713 130.251V109.075L128.28 119.667Z" fill="#42E8E0" fill-opacity="0.2"/>
<path d="M128.28 140.843L110.847 130.251V109.075L128.28 119.667V140.843Z" fill="#42E8E0" fill-opacity="0.2"/>
<path d="M145.712 130.251L128.279 140.843V119.667L145.712 109.075V130.251Z" fill="#2FD3C7" fill-opacity="0.2"/>
<path d="M128.28 119.666L110.847 109.074L128.28 98.4824L145.713 109.074L128.28 119.666Z" fill="#42E8E0" fill-opacity="0.2"/>
<path d="M128.28 119.667L111.599 109.532L110.847 109.99L128.28 120.582L145.713 109.99L144.953 109.532L128.28 119.667Z" fill="white" fill-opacity="0.2"/>
<path d="M150.925 133.259L133.492 122.667V143.851L150.925 154.443L168.358 143.851V122.667L150.925 133.259Z" fill="#42E8E0" fill-opacity="0.2"/>
<path d="M150.925 154.443L133.492 143.851V122.667L150.925 133.259V154.443Z" fill="#42E8E0" fill-opacity="0.2"/>
<path d="M168.359 143.851L150.926 154.443V133.259L168.359 122.667V143.851Z" fill="#2FD3C7" fill-opacity="0.2"/>
<path d="M150.925 133.259L133.492 122.667L150.925 112.075L168.358 122.667L150.925 133.259Z" fill="#42E8E0" fill-opacity="0.2"/>
<path d="M150.925 133.259L134.245 123.125L133.492 123.59L150.925 134.174L168.358 123.59V122.667L150.925 133.259Z" fill="white" fill-opacity="0.2"/>
<path d="M82.9878 120.582L65.5547 109.99V131.174L82.9878 141.766L100.421 131.174V109.99L82.9878 120.582Z" fill="#42E8E0" fill-opacity="0.2"/>
<path d="M82.9878 141.766L65.5547 131.174V109.99L82.9878 120.582V141.766Z" fill="#42E8E0" fill-opacity="0.2"/>
<path d="M100.421 131.174L82.9883 141.766V120.582L100.421 109.99V131.174Z" fill="#2FD3C7" fill-opacity="0.2"/>
<path d="M82.9878 120.582L65.5547 109.99L82.9878 99.3979L100.421 109.99L82.9878 120.582Z" fill="#42E8E0" fill-opacity="0.2"/>
<path d="M82.9878 120.582L66.3072 110.447L65.5547 110.912L82.9878 121.504L100.421 110.912L99.6614 110.447L82.9878 120.582Z" fill="white" fill-opacity="0.2"/>
<path d="M105.634 134.174L88.2012 123.59V144.766L105.634 155.358L123.067 144.766V123.59L105.634 134.174Z" fill="#42E8E0" fill-opacity="0.2"/>
<path d="M105.634 155.358L88.2012 144.766V123.59L105.634 134.174V155.358Z" fill="#42E8E0" fill-opacity="0.2"/>
<path d="M123.067 144.766L105.634 155.358V134.174L123.067 123.59V144.766Z" fill="#2FD3C7" fill-opacity="0.2"/>
<path d="M105.634 134.174L88.2012 123.59L105.634 112.998L123.067 123.59L105.634 134.174Z" fill="#42E8E0" fill-opacity="0.2"/>
<path d="M105.634 134.174L88.9537 124.047L88.2012 124.505L105.634 135.097L123.067 124.505L122.308 124.047L105.634 134.174Z" fill="white" fill-opacity="0.2"/>
<path d="M128.28 147.774L110.847 137.182V158.366L128.28 168.958L145.713 158.366V137.182L128.28 147.774Z" fill="#42E8E0" fill-opacity="0.2"/>
<path d="M128.28 168.958L110.847 158.366V137.182L128.28 147.774V168.958Z" fill="#42E8E0" fill-opacity="0.2"/>
<path d="M145.712 158.366L128.279 168.958V147.774L145.712 137.182V158.366Z" fill="#2FD3C7" fill-opacity="0.2"/>
<path d="M128.28 147.774L110.847 137.182L128.28 126.59L145.713 137.182L128.28 147.774Z" fill="#42E8E0" fill-opacity="0.2"/>
<path d="M128.28 147.774L111.599 137.64L110.847 138.097L128.28 148.689L145.713 138.104V137.182L128.28 147.774Z" fill="white" fill-opacity="0.2"/>
<path d="M60.3423 135.097L42.9092 124.505V145.689L60.3423 156.281L77.7753 145.689V124.505L60.3423 135.097Z" fill="#42E8E0" fill-opacity="0.2"/>
<path d="M60.3423 156.281L42.9092 145.689V124.505L60.3423 135.097V156.281Z" fill="#42E8E0" fill-opacity="0.2"/>
<path d="M77.7759 145.689L60.3428 156.281V135.097L77.7759 124.505V145.689Z" fill="#2FD3C7" fill-opacity="0.2"/>
<path d="M60.3423 135.097L42.9092 124.505L60.3423 113.913L77.7753 124.505L60.3423 135.097Z" fill="#42E8E0" fill-opacity="0.2"/>
<path d="M60.3423 135.097L42.9092 124.505V125.427L60.3423 136.012L77.7753 125.427L77.0159 124.963L60.3423 135.097Z" fill="white" fill-opacity="0.2"/>
<path d="M82.9878 148.689L65.5547 138.097V159.281L82.9878 169.873L100.421 159.281V138.097L82.9878 148.689Z" fill="#42E8E0" fill-opacity="0.2"/>
<path d="M82.9878 169.873L65.5547 159.281V138.097L82.9878 148.689V169.873Z" fill="#42E8E0" fill-opacity="0.2"/>
<path d="M100.421 159.281L82.9883 169.873V148.689L100.421 138.097V159.281Z" fill="#2FD3C7" fill-opacity="0.2"/>
<path d="M82.9878 148.689L65.5547 138.097L82.9878 127.512L100.421 138.104L82.9878 148.689Z" fill="#42E8E0" fill-opacity="0.2"/>
<path d="M82.9878 148.689L65.5547 138.097V139.02L82.9878 149.612L100.421 139.02L99.6614 138.562L82.9878 148.689Z" fill="white" fill-opacity="0.2"/>
<path d="M105.634 162.289L88.2012 151.697V172.881L105.634 183.473L123.067 172.881V151.697L105.634 162.289Z" fill="#42E8E0" fill-opacity="0.2"/>
<path d="M105.634 183.473L88.2012 172.881V151.697L105.634 162.289V183.473Z" fill="#42E8E0" fill-opacity="0.2"/>
<path d="M123.067 172.881L105.634 183.473V162.289L123.067 151.697V172.881Z" fill="#2FD3C7" fill-opacity="0.2"/>
<path d="M105.634 162.289L88.2012 151.697L105.634 141.105L123.067 151.697L105.634 162.289Z" fill="#42E8E0" fill-opacity="0.2"/>
<path d="M105.634 162.289L88.2012 151.697V152.612L105.634 163.204L123.067 152.612V151.697L105.634 162.289Z" fill="white" fill-opacity="0.2"/>
<path d="M105.634 77.9597L88.2012 67.3677V88.5444L105.634 99.1363L123.067 88.5444V67.3677L105.634 77.9597Z" fill="#42E8E0" fill-opacity="0.2"/>
<path d="M105.634 99.1363L88.2012 88.5444V67.3677L105.634 77.9597V99.1363Z" fill="#42E8E0" fill-opacity="0.2"/>
<path d="M123.067 88.5444L105.634 99.1363V77.9597L123.067 67.3677V88.5444Z" fill="#2FD3C7" fill-opacity="0.2"/>
<path d="M105.634 77.9598L88.2012 67.3679L105.634 56.7759L123.067 67.3679L105.634 77.9598Z" fill="#42E8E0" fill-opacity="0.2"/>
<path d="M105.634 77.9595L88.9537 67.8252L88.2012 68.2829L105.634 78.8748L123.067 68.2829L122.308 67.8252L105.634 77.9595Z" fill="white" fill-opacity="0.2"/>
<path opacity="0.7" d="M105.634 158.838L93.7383 151.61L105.634 144.388L117.523 151.617L105.634 158.838Z" fill="#18B2A3"/>
<path opacity="0.7" d="M82.9887 145.245L71.0928 138.017L82.9887 130.796L94.8777 138.017L82.9887 145.245Z" fill="#18B2A3"/>
<path opacity="0.7" d="M128.28 144.323L116.384 137.102L128.28 129.874L140.169 137.102L128.28 144.323Z" fill="#18B2A3"/>
<path opacity="0.7" d="M150.967 129.975L139.078 122.754L150.967 115.526L162.856 122.754L150.967 129.975Z" fill="#18B2A3"/>
<path opacity="0.7" d="M60.3422 131.646L48.4463 124.425L60.3422 117.197L72.2312 124.425L60.3422 131.646Z" fill="#18B2A3"/>
<path d="M128.28 91.5522L110.847 80.9602V102.144L128.28 112.736L145.713 102.144V80.9602L128.28 91.5522Z" fill="#42E8E0" fill-opacity="0.2"/>
<path d="M128.28 112.736L110.847 102.144V80.9602L128.28 91.5522V112.736Z" fill="#42E8E0" fill-opacity="0.2"/>
<path d="M145.712 102.144L128.279 112.736V91.5522L145.712 80.9602V102.144Z" fill="#2FD3C7" fill-opacity="0.2"/>
<path d="M128.28 91.5522L110.847 80.9602L128.28 70.3755L145.713 80.9602L128.28 91.5522Z" fill="#42E8E0" fill-opacity="0.2"/>
<path d="M128.28 91.5518L111.599 81.4248L110.847 81.8825L128.28 92.4745L145.713 81.8825L144.953 81.4248L128.28 91.5518Z" fill="white" fill-opacity="0.2"/>
<path d="M150.925 105.152L133.492 94.5598V115.736L150.925 126.328L168.358 115.736V94.5598L150.925 105.152Z" fill="#42E8E0" fill-opacity="0.2"/>
<path d="M150.925 126.328L133.492 115.736V94.5598L150.925 105.152V126.328Z" fill="#42E8E0" fill-opacity="0.2"/>
<path d="M168.359 115.736L150.926 126.328V105.152L168.359 94.5598V115.736Z" fill="#2FD3C7" fill-opacity="0.2"/>
<path d="M150.925 105.152L133.492 94.5598L150.925 83.9678L168.358 94.5598L150.925 105.152Z" fill="#42E8E0" fill-opacity="0.2"/>
<path d="M150.925 105.152L134.245 95.0175L133.492 95.4752L150.925 106.067L168.358 95.4752V94.5598L150.925 105.152Z" fill="white" fill-opacity="0.2"/>
<path d="M82.9878 92.4745L65.5547 81.8826V103.059L82.9878 113.651L100.421 103.059V81.8826L82.9878 92.4745Z" fill="#42E8E0" fill-opacity="0.2"/>
<path d="M82.9878 113.651L65.5547 103.059V81.8826L82.9878 92.4745V113.651Z" fill="#42E8E0" fill-opacity="0.2"/>
<path d="M100.421 103.059L82.9883 113.651V92.4745L100.421 81.8826V103.059Z" fill="#2FD3C7" fill-opacity="0.2"/>
<path d="M82.9878 92.4747L65.5547 81.8828L82.9878 71.2908L100.421 81.8828L82.9878 92.4747Z" fill="#42E8E0" fill-opacity="0.2"/>
<path d="M82.9878 92.4746L66.3072 82.3403L65.5547 82.798L82.9878 93.39L100.421 82.798L99.6614 82.3403L82.9878 92.4746Z" fill="white" fill-opacity="0.2"/>
<path d="M105.634 106.067L88.2012 95.4749V116.659L105.634 127.251L123.067 116.659V95.4749L105.634 106.067Z" fill="#42E8E0" fill-opacity="0.2"/>
<path d="M105.634 127.251L88.2012 116.659V95.4749L105.634 106.067V127.251Z" fill="#42E8E0" fill-opacity="0.2"/>
<path d="M123.067 116.659L105.634 127.251V106.067L123.067 95.4749V116.659Z" fill="#2FD3C7" fill-opacity="0.2"/>
<path d="M105.634 106.067L88.2012 95.4753L105.634 84.8833L123.067 95.4753L105.634 106.067Z" fill="#42E8E0" fill-opacity="0.2"/>
<path d="M105.634 106.067L88.9537 95.9399L88.2012 96.3976L105.634 106.99L123.067 96.3976L122.308 95.9399L105.634 106.067Z" fill="white" fill-opacity="0.2"/>
<path d="M128.28 119.667L110.847 109.075V130.251L128.28 140.843L145.713 130.251V109.075L128.28 119.667Z" fill="#42E8E0" fill-opacity="0.2"/>
<path d="M128.28 140.843L110.847 130.251V109.075L128.28 119.667V140.843Z" fill="#42E8E0" fill-opacity="0.2"/>
<path d="M145.712 130.251L128.279 140.843V119.667L145.712 109.075V130.251Z" fill="#2FD3C7" fill-opacity="0.2"/>
<path d="M128.28 119.666L110.847 109.074L128.28 98.4824L145.713 109.074L128.28 119.666Z" fill="#42E8E0" fill-opacity="0.2"/>
<path d="M128.28 119.667L111.599 109.532L110.847 109.99L128.28 120.582L145.713 109.99V109.075L128.28 119.667Z" fill="white" fill-opacity="0.2"/>
<path d="M60.3423 106.99L42.9092 96.3977V117.574L60.3423 128.166L77.7753 117.574V96.3977L60.3423 106.99Z" fill="#42E8E0" fill-opacity="0.2"/>
<path d="M60.3423 128.166L42.9092 117.574V96.3977L60.3423 106.99V128.166Z" fill="#42E8E0" fill-opacity="0.2"/>
<path d="M77.7759 117.574L60.3428 128.166V106.99L77.7759 96.3977V117.574Z" fill="#2FD3C7" fill-opacity="0.2"/>
<path d="M60.3423 106.99L42.9092 96.3976L60.3423 85.8057L77.7753 96.3976L60.3423 106.99Z" fill="#42E8E0" fill-opacity="0.2"/>
<path d="M60.3423 106.99L43.6617 96.8555L42.9092 97.3132L60.3423 107.905L77.7753 97.3132L77.0159 96.8555L60.3423 106.99Z" fill="white" fill-opacity="0.2"/>
<path d="M82.9878 120.582L65.5547 109.99V131.174L82.9878 141.766L100.421 131.174V109.99L82.9878 120.582Z" fill="#42E8E0" fill-opacity="0.2"/>
<path d="M82.9878 141.766L65.5547 131.174V109.99L82.9878 120.582V141.766Z" fill="#42E8E0" fill-opacity="0.2"/>
<path d="M100.421 131.174L82.9883 141.766V120.582L100.421 109.99V131.174Z" fill="#2FD3C7" fill-opacity="0.2"/>
<path d="M82.9878 120.582L65.5547 109.99L82.9878 99.3979L100.421 109.99L82.9878 120.582Z" fill="#42E8E0" fill-opacity="0.2"/>
<path d="M82.9878 120.582L65.5547 109.99V110.912L82.9878 121.504L100.421 110.912L99.6614 110.447L82.9878 120.582Z" fill="white" fill-opacity="0.2"/>
<path d="M105.634 134.174L88.2012 123.59V144.766L105.634 155.358L123.067 144.766V123.59L105.634 134.174Z" fill="#42E8E0" fill-opacity="0.2"/>
<path d="M105.634 155.358L88.2012 144.766V123.59L105.634 134.174V155.358Z" fill="#42E8E0" fill-opacity="0.2"/>
<path d="M123.067 144.766L105.634 155.358V134.174L123.067 123.59V144.766Z" fill="#2FD3C7" fill-opacity="0.2"/>
<path d="M105.634 134.174L88.2012 123.59L105.634 112.998L123.067 123.59L105.634 134.174Z" fill="#42E8E0" fill-opacity="0.2"/>
<path d="M105.634 134.174L88.2012 123.59V124.505L105.634 135.097L123.067 124.505V123.59L105.634 134.174Z" fill="white" fill-opacity="0.2"/>
<path opacity="0.7" d="M150.967 101.991L139.078 94.7629L150.967 87.5417L162.856 94.7629L150.967 101.991Z" fill="#18B2A3"/>
<path opacity="0.7" d="M60.3422 103.662L48.4463 96.434L60.3422 89.2129L72.2312 96.434L60.3422 103.662Z" fill="#18B2A3"/>
<path d="M105.634 49.8452L88.2012 39.2532V60.4371L105.634 71.0291L123.067 60.4371V39.2532L105.634 49.8452Z" fill="#42E8E0" fill-opacity="0.2"/>
<path d="M105.634 71.0291L88.2012 60.4371V39.2532L105.634 49.8452V71.0291Z" fill="#42E8E0" fill-opacity="0.2"/>
<path d="M123.067 60.4371L105.634 71.0291V49.8452L123.067 39.2532V60.4371Z" fill="#2FD3C7" fill-opacity="0.2"/>
<path d="M105.634 49.8451L88.2012 39.2532L105.634 28.6685L123.067 39.2532L105.634 49.8451Z" fill="#42E8E0" fill-opacity="0.2"/>
<path d="M105.634 49.8452L88.2012 39.2532V40.1758L105.634 50.7678L123.067 40.1758V39.2532L105.634 49.8452Z" fill="white" fill-opacity="0.2"/>
<path d="M128.28 63.4445L110.847 52.8525V74.0365L128.28 84.6212L145.713 74.0365V52.8525L128.28 63.4445Z" fill="#42E8E0" fill-opacity="0.2"/>
<path d="M128.28 84.6212L110.847 74.0365V52.8525L128.28 63.4445V84.6212Z" fill="#42E8E0" fill-opacity="0.2"/>
<path d="M145.712 74.0365L128.279 84.6212V63.4445L145.712 52.8525V74.0365Z" fill="#2FD3C7" fill-opacity="0.2"/>
<path d="M128.28 63.4449L110.847 52.853L128.28 42.261L145.713 52.853L128.28 63.4449Z" fill="#42E8E0" fill-opacity="0.2"/>
<path d="M128.28 63.4445L110.847 52.8525V53.7679L128.28 64.3599L145.713 53.7679V52.8525L128.28 63.4445Z" fill="white" fill-opacity="0.2"/>
<path d="M150.925 77.037L133.492 66.4451V87.629L150.925 98.221L168.358 87.629V66.4451L150.925 77.037Z" fill="#42E8E0" fill-opacity="0.2"/>
<path d="M150.925 98.221L133.492 87.629V66.4451L150.925 77.037V98.221Z" fill="#42E8E0" fill-opacity="0.2"/>
<path d="M168.359 87.629L150.926 98.221V77.037L168.359 66.4451V87.629Z" fill="#2FD3C7" fill-opacity="0.2"/>
<path d="M150.925 77.037L133.492 66.4451L150.925 55.8604L168.358 66.4451L150.925 77.037Z" fill="#42E8E0" fill-opacity="0.2"/>
<path d="M150.925 77.037L133.492 66.4451V67.3677L150.925 77.9597L168.358 67.3677V66.4451L150.925 77.037Z" fill="white" fill-opacity="0.2"/>
<path d="M82.9878 64.36L65.5547 53.7681V74.952L82.9878 85.544L100.421 74.952V53.7681L82.9878 64.36Z" fill="#42E8E0" fill-opacity="0.2"/>
<path d="M82.9878 85.544L65.5547 74.952V53.7681L82.9878 64.36V85.544Z" fill="#42E8E0" fill-opacity="0.2"/>
<path d="M100.421 74.952L82.9883 85.544V64.36L100.421 53.7681V74.952Z" fill="#2FD3C7" fill-opacity="0.2"/>
<path d="M82.9878 64.3603L65.5547 53.7683L82.9878 43.1836L100.421 53.7683L82.9878 64.3603Z" fill="#42E8E0" fill-opacity="0.2"/>
<path d="M82.9878 64.36L65.5547 53.7681V54.6907L82.9878 65.2827L100.421 54.6907V53.7681L82.9878 64.36Z" fill="white" fill-opacity="0.2"/>
<path d="M60.3423 78.8752L42.9092 68.2832V89.4672L60.3423 100.059L77.7753 89.4672V68.2832L60.3423 78.8752Z" fill="#42E8E0" fill-opacity="0.2"/>
<path d="M60.3423 100.059L42.9092 89.4672V68.2832L60.3423 78.8752V100.059Z" fill="#42E8E0" fill-opacity="0.2"/>
<path d="M77.7759 89.4672L60.3428 100.059V78.8752L77.7759 68.2832V89.4672Z" fill="#2FD3C7" fill-opacity="0.2"/>
<path d="M60.3423 78.8749L42.9092 68.283L60.3423 57.6982L77.7753 68.283L60.3423 78.8749Z" fill="#42E8E0" fill-opacity="0.2"/>
<path d="M60.3423 78.8752L42.9092 68.2832V69.2058L60.3423 79.7978L77.7753 69.2058V68.2832L60.3423 78.8752Z" fill="white" fill-opacity="0.2"/>
<path d="M13.6088 44.731L4.08789 38.9482V50.5137L13.6088 56.2964L23.1227 50.5137V38.9482L13.6088 44.731Z" fill="#42E8E0" fill-opacity="0.2"/>
<path d="M13.6088 56.2964L4.08789 50.5137V38.9482L13.6088 44.731V56.2964Z" fill="#42E8E0" fill-opacity="0.2"/>
<path d="M23.1214 50.5137L13.6074 56.2964V44.731L23.1214 38.9482V50.5137Z" fill="#2FD3C7" fill-opacity="0.2"/>
<path d="M13.6088 44.7307L4.08789 38.948L13.6088 33.1653L23.1227 38.948L13.6088 44.7307Z" fill="#42E8E0" fill-opacity="0.2"/>
<path opacity="0.4" d="M13.6088 76.1582L4.08789 70.3754L13.6088 64.5854L23.1227 70.3754L13.6088 76.1582Z" fill="#03002D"/>
<path d="M13.6088 44.7308L4.50214 39.1951L4.08789 39.4493L13.6088 45.2321L23.1227 39.4493L22.7154 39.1951L13.6088 44.7308Z" fill="white" fill-opacity="0.2"/>
<path opacity="0.1" d="M13.6088 92.4746L4.08789 86.6919V98.2573L13.6088 104.04L23.1227 98.2573V86.6919L13.6088 92.4746Z" fill="#42E8E0" fill-opacity="0.2"/>
<path opacity="0.1" d="M13.6088 104.04L4.08789 98.2573V86.6919L13.6088 92.4746V104.04Z" fill="#42E8E0" fill-opacity="0.2"/>
<path opacity="0.1" d="M23.1214 98.2573L13.6074 104.04V92.4746L23.1214 86.6919V98.2573Z" fill="#2FD3C7" fill-opacity="0.2"/>
<path opacity="0.1" d="M13.6088 92.4746L4.08789 86.6919L13.6088 80.9092L23.1227 86.6919L13.6088 92.4746Z" fill="#42E8E0" fill-opacity="0.2"/>
<g opacity="0.1">
<path d="M13.6088 92.4749L4.50214 86.9392L4.08789 87.1935L13.6088 92.9762L23.1227 87.1935L22.7154 86.9392L13.6088 92.4749Z" fill="white" fill-opacity="0.2"/>
</g>
<path opacity="0.1" d="M13.6082 183.473L0 175.206V191.733L13.6082 200L27.2163 191.733V175.206L13.6082 183.473Z" fill="#42E8E0" fill-opacity="0.2"/>
<path opacity="0.1" d="M13.6082 200L0 191.733V175.206L13.6082 183.473V200Z" fill="#42E8E0" fill-opacity="0.2"/>
<path opacity="0.1" d="M27.2156 191.733L13.6074 200V183.473L27.2156 175.206V191.733Z" fill="#2FD3C7" fill-opacity="0.2"/>
<path opacity="0.1" d="M13.6082 183.473L0 175.205L13.6082 166.938L27.2094 175.205L13.6082 183.473Z" fill="#42E8E0" fill-opacity="0.2"/>
<g opacity="0.1">
<path d="M13.6082 183.473L0.586856 175.562L0 175.917L13.6082 184.185L27.2094 175.917L26.6226 175.562L13.6082 183.473Z" fill="white" fill-opacity="0.2"/>
</g>
<path opacity="0.4" d="M13.6082 178.14L0 169.873L13.6082 161.606L27.2094 169.873L13.6082 178.14Z" fill="#03002D"/>
<path d="M13.6082 152.285L0 144.018V160.552L13.6082 168.82L27.2163 160.552V144.018L13.6082 152.285Z" fill="#42E8E0" fill-opacity="0.2"/>
<path d="M13.6082 168.82L0 160.552V144.018L13.6082 152.285V168.82Z" fill="#42E8E0" fill-opacity="0.2"/>
<path d="M27.2156 160.552L13.6074 168.82V152.285L27.2156 144.018V160.552Z" fill="#2FD3C7" fill-opacity="0.2"/>
<path d="M13.6082 152.285L0 144.018L13.6082 135.751L27.2094 144.018L13.6082 152.285Z" fill="#42E8E0" fill-opacity="0.2"/>
<path d="M13.6082 152.285L0.586856 144.381L0 144.737L13.6082 153.004L27.2094 144.737L26.6226 144.381L13.6082 152.285Z" fill="white" fill-opacity="0.2"/>
<path d="M66.1422 50.6734C63.1942 48.632 58.6374 42.6096 60.1839 40.1323C61.7305 37.655 68.7935 39.6601 71.7415 41.6942C74.6896 43.7283 75.8219 47.3898 74.2754 49.867C72.7288 52.3443 69.0903 52.7075 66.1422 50.6734Z" fill="url(#paint0_radial_307_2486)"/>
<path style="mix-blend-mode:lighten" d="M66.1422 50.6734C63.1942 48.632 58.6374 42.6096 60.1839 40.1323C61.7305 37.655 68.7935 39.6601 71.7415 41.6942C74.6896 43.7283 75.8219 47.3898 74.2754 49.867C72.7288 52.3443 69.0903 52.7075 66.1422 50.6734Z" fill="url(#paint1_linear_307_2486)"/>
<path d="M85.7845 56.3765C85.6113 56.3753 85.4401 56.3383 85.2805 56.2675L73.1153 51.1822C72.7747 51.0396 72.5019 50.7605 72.3569 50.4063C72.2119 50.0521 72.2065 49.6517 72.342 49.2934C72.4775 48.935 72.7428 48.6479 73.0794 48.4954C73.4161 48.3428 73.7965 48.3371 74.1371 48.4797L86.2954 53.565C86.5946 53.6894 86.8431 53.9199 86.998 54.2165C87.153 54.5132 87.2046 54.8574 87.144 55.1898C87.0835 55.5223 86.9145 55.822 86.6663 56.0373C86.4181 56.2527 86.1062 56.37 85.7845 56.3692V56.3765Z" fill="#2FD3C7" fill-opacity="0.2"/>
<path d="M136.013 89.8374C135.737 89.8383 135.467 89.7523 135.238 89.5904C135.01 89.4286 134.832 89.1983 134.729 88.9293L127.134 69.1911C127.066 69.0141 127.032 68.8248 127.033 68.6339C127.035 68.443 127.072 68.2543 127.143 68.0786C127.214 67.9028 127.317 67.7435 127.446 67.6097C127.576 67.4759 127.729 67.3702 127.897 67.2986C128.065 67.2271 128.245 67.1911 128.426 67.1927C128.608 67.1943 128.787 67.2335 128.954 67.308C129.121 67.3826 129.273 67.491 129.4 67.6271C129.527 67.7632 129.627 67.9244 129.695 68.1014L137.29 87.8396C137.359 88.017 137.393 88.2069 137.392 88.3984C137.39 88.5899 137.353 88.7791 137.281 88.9553C137.21 89.1315 137.107 89.2912 136.977 89.4251C136.847 89.559 136.693 89.6646 136.524 89.7357C136.361 89.8044 136.188 89.839 136.013 89.8374Z" fill="#2FD3C7" fill-opacity="0.2"/>
<path d="M93.2949 63.0059C96.6718 60.6085 97.5623 55.7846 95.2839 52.2313C93.0055 48.6781 88.421 47.7411 85.0441 50.1384C81.6672 52.5358 80.7767 57.3597 83.0551 60.913C85.3335 64.4662 89.918 65.4032 93.2949 63.0059Z" fill="url(#paint2_radial_307_2486)"/>
<g style="mix-blend-mode:lighten">
<path d="M92.9925 49.8307C94.2255 50.6508 95.1993 51.8376 95.7906 53.2407C96.3819 54.6438 96.564 56.2 96.3139 57.7121C96.0637 59.2243 95.3926 60.6242 94.3855 61.7345C93.3784 62.8449 92.0807 63.6156 90.6569 63.9491C89.2331 64.2826 87.7472 64.1638 86.3876 63.6078C85.028 63.0518 83.8559 62.0836 83.0198 60.826C82.1837 59.5683 81.7212 58.0777 81.691 56.5432C81.6609 55.0087 82.0643 53.4993 82.8503 52.2063C83.8993 50.4804 85.5551 49.2617 87.4556 48.8166C89.3561 48.3714 91.3468 48.736 92.9925 49.8307Z" fill="url(#paint3_linear_307_2486)"/>
</g>
<path d="M125.78 70.4483C125.78 85.4935 117.261 97.6982 106.752 97.6982C96.2443 97.6982 87.7314 85.4935 87.7314 70.4483C87.7314 55.403 96.2512 50.8916 106.752 50.8916C117.254 50.8916 125.78 55.3957 125.78 70.4483Z" fill="url(#paint4_radial_307_2486)"/>
<g style="mix-blend-mode:lighten">
<path d="M125.78 70.4483C125.78 85.4935 117.261 97.6982 106.752 97.6982C96.2443 97.6982 87.7314 85.4935 87.7314 70.4483C87.7314 55.403 96.2512 50.8916 106.752 50.8916C117.254 50.8916 125.78 55.3957 125.78 70.4483Z" fill="url(#paint5_linear_307_2486)" fill-opacity="0.5"/>
</g>
<path d="M115.935 64.5563C110.867 67.6365 102.644 67.6365 97.5768 64.5563C92.5091 61.476 92.5022 56.4852 97.5768 53.4049C102.651 50.3247 110.867 50.3247 115.935 53.4049C121.003 56.4852 121.01 61.476 115.935 64.5563Z" fill="#393091"/>
<path d="M97.5774 55.5044C102.645 52.4242 110.868 52.4242 115.936 55.5044C118.007 56.7757 119.257 58.4103 119.622 60.0303C120.14 57.6766 118.932 55.2066 115.936 53.4049C110.868 50.3247 102.645 50.3247 97.5774 53.4049C94.6016 55.2066 93.3727 57.6766 93.8905 60.0303C94.2564 58.374 95.4785 56.7757 97.5774 55.5044Z" fill="#42E8E0" fill-opacity="0.2"/>
<path d="M101.092 29.8383C100.989 31.8378 100.44 33.7838 99.4887 35.5181C98.5374 37.2525 97.2108 38.7263 95.6166 39.82C92.5926 41.658 90.1416 40.1687 90.1416 36.4928C90.2441 34.4932 90.7933 32.5473 91.7446 30.8129C92.6959 29.0786 94.0225 27.6047 95.6166 26.511C98.6407 24.6731 101.092 26.1623 101.092 29.8383Z" fill="#BCBEFF"/>
<path d="M107.512 60.5678C118.227 60.5678 126.913 51.4282 126.913 40.1539C126.913 28.8796 118.227 19.74 107.512 19.74C96.7974 19.74 88.1113 28.8796 88.1113 40.1539C88.1113 51.4282 96.7974 60.5678 107.512 60.5678Z" fill="url(#paint6_radial_307_2486)"/>
<g style="mix-blend-mode:lighten">
<path d="M107.512 60.5678C118.227 60.5678 126.913 51.4282 126.913 40.1539C126.913 28.8796 118.227 19.74 107.512 19.74C96.7974 19.74 88.1113 28.8796 88.1113 40.1539C88.1113 51.4282 96.7974 60.5678 107.512 60.5678Z" fill="url(#paint7_linear_307_2486)" fill-opacity="0.5"/>
</g>
<path d="M101.491 49.8233C100.994 53.8407 98.1149 55.0975 95.0563 52.642C91.9978 50.1865 89.892 44.905 90.3891 40.9167C90.8862 36.9284 93.7653 35.6425 96.8169 38.098C99.8686 40.5535 101.954 45.8059 101.491 49.8233Z" fill="#393091"/>
<path d="M98.9297 46.3581C98.7502 47.811 97.7076 48.276 96.5961 47.3824C96.0163 46.8627 95.5615 46.2061 95.2688 45.4663C94.976 44.7265 94.8536 43.9244 94.9114 43.1253C95.0909 41.6723 96.1335 41.2074 97.245 42.101C97.8248 42.6207 98.2796 43.2772 98.5723 44.0171C98.8651 44.7569 98.9875 45.559 98.9297 46.3581Z" fill="#42E8E0" fill-opacity="0.2"/>
<path d="M96.4932 52.0536C93.4346 49.5981 91.3634 44.3457 91.8536 40.3356C91.8915 39.6695 92.0572 39.0184 92.3408 38.4216C92.6244 37.8248 93.02 37.2946 93.5037 36.863C91.9019 37.0229 90.6937 38.4467 90.3899 40.9168C89.8928 44.9342 91.9709 50.1793 95.0226 52.642C96.8384 54.095 98.5852 54.2475 99.8141 53.2959C98.598 53.3364 97.4121 52.8928 96.4932 52.0536Z" fill="#453C9E"/>
<path d="M95.2782 52.5113C92.2196 50.0486 90.1415 44.8035 90.6386 40.7861C90.8664 38.9263 91.6052 37.6622 92.6408 37.0811C91.474 37.5896 90.6248 38.9045 90.3762 40.9168C89.8791 44.9342 91.9573 50.1794 95.0089 52.6421C96.6521 53.957 98.2401 54.204 99.4414 53.5284C98.2884 54.0297 96.8109 53.7318 95.2782 52.5113Z" fill="#42E8E0" fill-opacity="0.2"/>
<path d="M131.523 75.659C135.208 73.8451 136.798 69.2311 135.074 65.3533C133.35 61.4756 128.965 59.8027 125.28 61.6166C121.595 63.4306 120.005 68.0446 121.729 71.9223C123.453 75.8 127.838 77.473 131.523 75.659Z" fill="url(#paint8_radial_307_2486)"/>
<g style="mix-blend-mode:lighten">
<path d="M131.523 75.6588C135.208 73.8448 136.798 69.2308 135.074 65.3531C133.35 61.4754 128.965 59.8024 125.28 61.6164C121.595 63.4304 120.005 68.0444 121.729 71.9221C123.453 75.7998 127.838 77.4728 131.523 75.6588Z" fill="url(#paint9_linear_307_2486)"/>
</g>
<path d="M140.155 94.3055C139.741 97.9959 136.648 104.97 133.852 104.621C131.056 104.273 129.606 96.7173 130.027 93.0341C130.448 89.3509 133.051 86.6484 135.847 87.0044C138.643 87.3604 140.57 90.6731 140.155 94.3055Z" fill="url(#paint10_radial_307_2486)"/>
<path style="mix-blend-mode:lighten" d="M140.155 94.3055C139.741 97.9959 136.648 104.97 133.852 104.621C131.056 104.273 129.606 96.7173 130.027 93.0341C130.448 89.3509 133.051 86.6484 135.847 87.0044C138.643 87.3604 140.57 90.6731 140.155 94.3055Z" fill="url(#paint11_linear_307_2486)"/>
<path d="M60.3423 28.6686L42.9092 18.0767V39.2533L60.3423 49.8453L77.7753 39.2533V18.0767L60.3423 28.6686Z" fill="#42E8E0" fill-opacity="0.2"/>
<path d="M60.3423 49.8453L42.9092 39.2533V18.0767L60.3423 28.6686V49.8453Z" fill="#42E8E0" fill-opacity="0.2"/>
<path d="M77.7759 39.2533L60.3428 49.8453V28.6686L77.7759 18.0767V39.2533Z" fill="#2FD3C7" fill-opacity="0.2"/>
<path d="M60.3423 28.6688L42.9092 18.0768L60.3423 7.48486L77.7753 18.0768L60.3423 28.6688Z" fill="#42E8E0" fill-opacity="0.2"/>
<path d="M60.3431 36.1876C60.2972 36.1868 60.2522 36.1743 60.2119 36.1512L59.0175 35.4247C58.9829 35.4096 58.9517 35.3869 58.9261 35.3581C58.9005 35.3293 58.8811 35.2951 58.8692 35.2577C58.8572 35.2203 58.853 35.1807 58.8568 35.1415C58.8607 35.1022 58.8724 35.0643 58.8913 35.0303C58.9102 34.9963 58.9359 34.9669 58.9665 34.9441C58.9971 34.9214 59.032 34.9058 59.0688 34.8984C59.1056 34.8911 59.1435 34.8921 59.1799 34.9014C59.2163 34.9107 59.2504 34.9281 59.2798 34.9525L60.3431 35.5991L61.4063 34.9525C61.4358 34.9281 61.4699 34.9107 61.5063 34.9014C61.5427 34.8921 61.5806 34.8911 61.6174 34.8984C61.6542 34.9058 61.6891 34.9214 61.7197 34.9441C61.7503 34.9669 61.7759 34.9963 61.7948 35.0303C61.8137 35.0643 61.8255 35.1022 61.8293 35.1415C61.8331 35.1807 61.8289 35.2203 61.817 35.2577C61.805 35.2951 61.7856 35.3293 61.76 35.3581C61.7345 35.3869 61.7033 35.4096 61.6687 35.4247L60.4743 36.1512C60.4336 36.1734 60.3888 36.1858 60.3431 36.1876Z" fill="white" fill-opacity="0.2"/>
<path d="M56.6977 33.9353C56.6569 33.9461 56.6142 33.9461 56.5734 33.9353L54.1224 32.4097C54.0925 32.3925 54.0663 32.369 54.0454 32.3406C54.0245 32.3123 54.0094 32.2797 54.001 32.245C53.9926 32.2102 53.9911 32.174 53.9965 32.1386C54.0019 32.1032 54.0142 32.0694 54.0326 32.0392C54.0491 32.0079 54.0714 31.9804 54.0982 31.9583C54.1249 31.9362 54.1556 31.9199 54.1884 31.9105C54.2212 31.901 54.2554 31.8985 54.2891 31.9031C54.3229 31.9078 54.3554 31.9195 54.3847 31.9375L56.8288 33.4268C56.8586 33.4441 56.8847 33.4676 56.9057 33.4957C56.9267 33.5239 56.9422 33.5561 56.9512 33.5906C56.9602 33.6252 56.9626 33.6612 56.9581 33.6967C56.9537 33.7322 56.9426 33.7664 56.9255 33.7973C56.9019 33.8389 56.8686 33.8734 56.8287 33.8975C56.7888 33.9217 56.7437 33.9347 56.6977 33.9353ZM51.7819 30.964C51.736 30.9633 51.691 30.9508 51.6507 30.9277L49.2066 29.4748C49.1771 29.4571 49.1513 29.4335 49.1305 29.4054C49.1097 29.3772 49.0943 29.345 49.0853 29.3106C49.0764 29.2762 49.0739 29.2402 49.0781 29.2048C49.0824 29.1694 49.0932 29.1353 49.1099 29.1043C49.1267 29.0733 49.1491 29.046 49.1759 29.0241C49.2027 29.0023 49.2333 28.9861 49.266 28.9767C49.2987 28.9672 49.3328 28.9647 49.3665 28.9691C49.4001 28.9735 49.4326 28.9849 49.4621 29.0026L51.9061 30.4555C51.9581 30.4831 51.9996 30.5286 52.0236 30.5844C52.0476 30.6402 52.0528 30.703 52.0383 30.7624C52.0238 30.8217 51.9905 30.874 51.9439 30.9107C51.8972 30.9474 51.8401 30.9662 51.7819 30.964ZM46.9489 27.9928C46.9057 28.0026 46.861 28.0026 46.8177 27.9928L44.3737 26.5035C44.3439 26.4861 44.3178 26.4627 44.2968 26.4345C44.2758 26.4064 44.2603 26.3741 44.2513 26.3396C44.2423 26.3051 44.2399 26.2691 44.2443 26.2336C44.2488 26.1981 44.2599 26.1639 44.277 26.133C44.3116 26.0712 44.3678 26.0261 44.4335 26.0071C44.4992 25.9881 44.5694 25.9968 44.6291 26.0313L47.0456 27.4697C47.0753 27.4871 47.1015 27.5105 47.1225 27.5386C47.1435 27.5668 47.159 27.5991 47.168 27.6336C47.177 27.6681 47.1793 27.7041 47.1749 27.7396C47.1705 27.7751 47.1594 27.8093 47.1422 27.8402C47.1235 27.8797 47.0963 27.9141 47.0628 27.9406C47.0292 27.9671 46.9902 27.9849 46.9489 27.9928ZM42.0539 25.0215C42.0103 25.0196 41.9678 25.0072 41.9296 24.9852L39.4786 23.5322C39.4383 23.5206 39.4014 23.4986 39.3713 23.468C39.3412 23.4375 39.319 23.3994 39.3066 23.3574C39.2942 23.3154 39.2921 23.2708 39.3004 23.2277C39.3088 23.1846 39.3273 23.1444 39.3543 23.1109C39.3708 23.0796 39.3931 23.0521 39.4198 23.03C39.4466 23.0078 39.4773 22.9916 39.5101 22.9821C39.5428 22.9726 39.5771 22.9701 39.6108 22.9748C39.6446 22.9794 39.6771 22.9911 39.7064 23.0092L42.1505 24.4621C42.1803 24.4795 42.2064 24.5029 42.2274 24.531C42.2484 24.5592 42.2639 24.5915 42.2729 24.626C42.2819 24.6605 42.2843 24.6965 42.2798 24.732C42.2754 24.7675 42.2643 24.8017 42.2472 24.8326C42.2303 24.8837 42.1999 24.9286 42.1595 24.9621C42.1191 24.9956 42.0705 25.0162 42.0193 25.0215H42.0539ZM37.1657 22.0429C37.1194 22.0456 37.0735 22.0329 37.0345 22.0066L34.5904 20.5537C34.5309 20.518 34.4873 20.459 34.4692 20.3895C34.451 20.32 34.4599 20.2458 34.4938 20.1832C34.5276 20.1206 34.5838 20.0747 34.6498 20.0556C34.7158 20.0365 34.7864 20.0458 34.8459 20.0815L37.2969 21.5344C37.3562 21.5721 37.399 21.633 37.4158 21.7038C37.4326 21.7746 37.4221 21.8495 37.3866 21.9122C37.3618 21.9588 37.3241 21.9964 37.2784 22.0198C37.2327 22.0431 37.1813 22.0512 37.1312 22.0429H37.1657Z" fill="white" fill-opacity="0.2"/>
<path d="M32.2361 19.0719C32.1933 19.085 32.1478 19.085 32.1049 19.0719L30.9105 18.3454C30.8706 18.3229 30.8373 18.2893 30.8142 18.2483C30.791 18.2074 30.779 18.1605 30.7793 18.1129C30.7785 18.0642 30.7903 18.0161 30.8134 17.9739C30.8365 17.9317 30.8701 17.8968 30.9105 17.8731L32.1049 17.1466C32.1657 17.1117 32.237 17.1029 32.3038 17.1218C32.3707 17.1407 32.428 17.1861 32.464 17.2483C32.4811 17.2792 32.4922 17.3134 32.4966 17.3489C32.501 17.3844 32.4987 17.4205 32.4897 17.455C32.4807 17.4895 32.4652 17.5218 32.4442 17.5499C32.4232 17.578 32.397 17.6015 32.3673 17.6189L31.5595 18.1129L32.3673 18.5997C32.426 18.6361 32.4689 18.6952 32.4869 18.7643C32.505 18.8335 32.4967 18.9073 32.464 18.9702C32.4373 19.0061 32.4024 19.0342 32.3625 19.052C32.3227 19.0698 32.2792 19.0766 32.2361 19.0719Z" fill="white" fill-opacity="0.2"/>
<path d="M34.6796 16.1368C34.6346 16.1356 34.5907 16.1223 34.552 16.0982C34.5133 16.074 34.4811 16.0397 34.4587 15.9987C34.4415 15.9678 34.4304 15.9336 34.426 15.8981C34.4216 15.8627 34.4239 15.8266 34.4329 15.7921C34.4419 15.7576 34.4574 15.7253 34.4784 15.6972C34.4994 15.669 34.5256 15.6456 34.5553 15.6282L36.9994 14.139C37.0591 14.1045 37.1293 14.0958 37.195 14.1148C37.2607 14.1338 37.3169 14.1789 37.3515 14.2407C37.3686 14.2716 37.3798 14.3058 37.3842 14.3413C37.3886 14.3767 37.3862 14.4128 37.3772 14.4473C37.3682 14.4818 37.3528 14.5141 37.3317 14.5422C37.3107 14.5704 37.2846 14.5938 37.2548 14.6112L34.8108 16.1004C34.7705 16.1236 34.7255 16.136 34.6796 16.1368ZM39.5747 13.1655C39.5288 13.1642 39.4839 13.1509 39.4441 13.1268C39.4043 13.1027 39.3709 13.0686 39.3468 13.0275C39.3297 12.9966 39.3186 12.9624 39.3142 12.9269C39.3097 12.8914 39.3121 12.8553 39.3211 12.8208C39.3301 12.7863 39.3456 12.754 39.3666 12.7259C39.3876 12.6978 39.4137 12.6743 39.4435 12.657L41.8945 11.1677C41.9542 11.1332 42.0244 11.1245 42.0901 11.1435C42.1558 11.1625 42.2119 11.2076 42.2466 11.2694C42.2637 11.3003 42.2748 11.3345 42.2792 11.37C42.2837 11.4055 42.2813 11.4415 42.2723 11.476C42.2633 11.5105 42.2478 11.5428 42.2268 11.571C42.2058 11.5991 42.1797 11.6225 42.1499 11.6399L39.7058 13.1292C39.6652 13.1513 39.6204 13.1637 39.5747 13.1655ZM44.4697 10.187C44.4242 10.1878 44.3793 10.1762 44.3394 10.1533C44.2994 10.1304 44.2658 10.0969 44.2419 10.0562C44.2088 9.99222 44.2003 9.91728 44.2183 9.84693C44.2363 9.77659 44.2794 9.71624 44.3386 9.67842L46.7826 8.22548C46.8121 8.20113 46.8462 8.18371 46.8826 8.17439C46.919 8.16506 46.9569 8.16405 46.9937 8.17143C47.0305 8.1788 47.0654 8.19438 47.096 8.21713C47.1266 8.23987 47.1522 8.26925 47.1711 8.30329C47.19 8.33733 47.2018 8.37523 47.2056 8.41445C47.2095 8.45367 47.2053 8.4933 47.1933 8.53067C47.1813 8.56803 47.1619 8.60228 47.1363 8.63108C47.1108 8.65989 47.0796 8.6826 47.045 8.69768L44.594 10.1506C44.5575 10.1768 44.5138 10.1896 44.4697 10.187ZM49.3579 7.21568C49.3133 7.21674 49.2693 7.20517 49.2304 7.18216C49.1915 7.15915 49.1593 7.12556 49.137 7.08491C49.1197 7.05345 49.1084 7.0187 49.1039 6.98266C49.0994 6.94662 49.1017 6.91 49.1107 6.8749C49.1197 6.8398 49.1352 6.80692 49.1563 6.77813C49.1774 6.74934 49.2036 6.72522 49.2336 6.70715L51.6777 5.2542C51.7067 5.23587 51.7388 5.22376 51.7722 5.21859C51.8057 5.21341 51.8398 5.21527 51.8725 5.22405C51.9053 5.23284 51.936 5.24837 51.963 5.26976C51.99 5.29114 52.0127 5.31796 52.0298 5.34864C52.0471 5.3801 52.0583 5.41485 52.0628 5.45089C52.0674 5.48693 52.065 5.52355 52.0561 5.55865C52.0471 5.59375 52.0316 5.62664 52.0105 5.65543C51.9894 5.68421 51.9631 5.70834 51.9332 5.72641L49.4891 7.17935C49.4501 7.20564 49.4042 7.21834 49.3579 7.21568ZM54.253 4.22261C54.207 4.22201 54.1618 4.20901 54.122 4.18484C54.0821 4.16068 54.0487 4.12616 54.0251 4.08458C53.9924 4.02171 53.9841 3.94788 54.0022 3.87873C54.0202 3.80958 54.0631 3.75053 54.1218 3.71408L56.5728 2.26113C56.6017 2.2428 56.6339 2.23069 56.6673 2.22552C56.7007 2.22034 56.7348 2.2222 56.7676 2.23099C56.8003 2.23977 56.8311 2.2553 56.8581 2.27669C56.8851 2.29808 56.9078 2.32489 56.9249 2.35557C56.958 2.41954 56.9665 2.49448 56.9485 2.56483C56.9305 2.63518 56.8874 2.69552 56.8282 2.73334L54.3841 4.18629C54.3435 4.20841 54.2987 4.22082 54.253 4.22261Z" fill="white" fill-opacity="0.2"/>
<path d="M61.5373 1.27323C61.494 1.28305 61.4493 1.28305 61.4061 1.27323L60.3428 0.590301L59.2727 1.2369C59.2129 1.27139 59.1428 1.28006 59.077 1.26108C59.0113 1.24209 58.9552 1.19694 58.9206 1.13519C58.9034 1.10428 58.8923 1.07008 58.8879 1.03459C58.8835 0.999107 58.8859 0.963051 58.8949 0.928539C58.9039 0.894028 58.9193 0.861756 58.9403 0.833615C58.9613 0.805475 58.9875 0.782033 59.0172 0.764665L60.2116 0.0381488C60.2513 0.0131839 60.2966 0 60.3428 0C60.389 0 60.4344 0.0131839 60.474 0.0381488L61.6684 0.764665C61.6982 0.782033 61.7243 0.805475 61.7453 0.833615C61.7663 0.861756 61.7818 0.894028 61.7908 0.928539C61.7998 0.963051 61.8022 0.999107 61.7978 1.03459C61.7933 1.07008 61.7822 1.10428 61.7651 1.13519C61.7415 1.17677 61.7082 1.21129 61.6683 1.23546C61.6284 1.25962 61.5833 1.27263 61.5373 1.27323Z" fill="white" fill-opacity="0.2"/>
<path d="M85.9985 16.1368C85.9577 16.1476 85.915 16.1476 85.8742 16.1368L83.4232 14.6476C83.3935 14.6302 83.3673 14.6067 83.3463 14.5786C83.3253 14.5505 83.3099 14.5182 83.3009 14.4837C83.2918 14.4492 83.2895 14.4131 83.2939 14.3776C83.2983 14.3422 83.3094 14.308 83.3266 14.2771C83.3625 14.2148 83.4199 14.1695 83.4867 14.1505C83.5536 14.1316 83.6248 14.1405 83.6856 14.1753L86.1297 15.6646C86.1594 15.682 86.1855 15.7054 86.2066 15.7336C86.2276 15.7617 86.243 15.794 86.252 15.8285C86.261 15.863 86.2634 15.899 86.259 15.9345C86.2546 15.97 86.2435 16.0042 86.2263 16.0351C86.1988 16.07 86.1638 16.0974 86.1242 16.1151C86.0845 16.1328 86.0414 16.1403 85.9985 16.1368ZM81.1103 13.1655C81.0672 13.1764 81.0223 13.1764 80.9791 13.1655L78.5351 11.6763C78.5053 11.6589 78.4792 11.6355 78.4582 11.6073C78.4371 11.5792 78.4217 11.5469 78.4127 11.5124C78.4037 11.4779 78.4013 11.4418 78.4057 11.4064C78.4101 11.3709 78.4213 11.3367 78.4384 11.3058C78.4549 11.2745 78.4772 11.247 78.5039 11.2249C78.5307 11.2028 78.5613 11.1865 78.5941 11.177C78.6269 11.1675 78.6612 11.1651 78.6949 11.1697C78.7286 11.1743 78.7611 11.186 78.7905 11.2041L81.2346 12.6933C81.2643 12.7107 81.2905 12.7341 81.3115 12.7623C81.3325 12.7904 81.348 12.8227 81.357 12.8572C81.366 12.8917 81.3683 12.9278 81.3639 12.9633C81.3595 12.9987 81.3484 13.0329 81.3313 13.0638C81.3052 13.0986 81.2715 13.1261 81.2329 13.1439C81.1944 13.1616 81.1523 13.169 81.1103 13.1655ZM76.2152 10.187C76.1721 10.1973 76.1272 10.1973 76.0841 10.187L73.64 8.69774C73.6102 8.68037 73.5841 8.65693 73.5631 8.62879C73.5421 8.60065 73.5266 8.56838 73.5176 8.53387C73.5086 8.49936 73.5062 8.46331 73.5107 8.42783C73.5151 8.39234 73.5262 8.35814 73.5433 8.32724C73.578 8.26548 73.6341 8.22034 73.6998 8.20135C73.7655 8.18237 73.8357 8.19104 73.8954 8.22553L76.3464 9.67848C76.4056 9.71629 76.4487 9.77664 76.4667 9.84699C76.4847 9.91734 76.4762 9.99228 76.4431 10.0562C76.4191 10.097 76.3856 10.1304 76.3456 10.1533C76.3057 10.1763 76.2607 10.1879 76.2152 10.187ZM71.3202 7.21573C71.2761 7.21838 71.2324 7.20561 71.1959 7.17941L68.7449 5.72646C68.7157 5.70848 68.6903 5.6846 68.6699 5.65618C68.6496 5.62777 68.6348 5.59539 68.6265 5.56093C68.6182 5.52647 68.6164 5.49061 68.6213 5.45543C68.6262 5.42024 68.6377 5.38643 68.6552 5.35596C68.6717 5.32467 68.6939 5.29716 68.7207 5.27505C68.7474 5.25294 68.7781 5.23668 68.8109 5.2272C68.8437 5.21773 68.8779 5.21524 68.9117 5.21989C68.9454 5.22453 68.9779 5.23622 69.0073 5.25426L71.4513 6.7072C71.5105 6.74502 71.5536 6.80537 71.5716 6.87571C71.5896 6.94606 71.5811 7.021 71.548 7.08497C71.5241 7.12568 71.4905 7.15914 71.4505 7.18207C71.4106 7.20499 71.3657 7.2166 71.3202 7.21573ZM66.432 4.22266C66.383 4.24155 66.3291 4.24155 66.2801 4.22266L63.836 2.76972C63.8061 2.75165 63.7798 2.72752 63.7587 2.69874C63.7376 2.66995 63.7221 2.63706 63.7131 2.60196C63.7041 2.56686 63.7018 2.53024 63.7063 2.4942C63.7108 2.45816 63.7221 2.42341 63.7394 2.39195C63.7565 2.36127 63.7792 2.33445 63.8062 2.31307C63.8332 2.29168 63.8639 2.27615 63.8967 2.26736C63.9294 2.25858 63.9635 2.25672 63.997 2.26189C64.0304 2.26707 64.0625 2.27918 64.0915 2.29751L66.5356 3.75046C66.5875 3.77809 66.629 3.82358 66.653 3.87938C66.6771 3.93519 66.6823 3.99796 66.6678 4.0573C66.6533 4.11664 66.6199 4.16899 66.5733 4.20567C66.5266 4.24235 66.4695 4.26116 66.4113 4.25899L66.432 4.22266Z" fill="white" fill-opacity="0.2"/>
<path d="M88.4502 19.0718C88.4047 19.0727 88.3597 19.0611 88.3198 19.0381C88.2799 19.0152 88.2463 18.9817 88.2223 18.941C88.1892 18.877 88.1807 18.8021 88.1987 18.7318C88.2167 18.6614 88.2598 18.601 88.319 18.5632L89.1268 18.0765L88.319 17.5824C88.2892 17.5651 88.2631 17.5416 88.2421 17.5135C88.2211 17.4853 88.2056 17.4531 88.1966 17.4186C88.1876 17.384 88.1852 17.348 88.1897 17.3125C88.1941 17.277 88.2052 17.2428 88.2223 17.2119C88.257 17.1502 88.3131 17.105 88.3788 17.086C88.4445 17.067 88.5147 17.0757 88.5744 17.1102L89.7758 17.8367C89.814 17.8624 89.8454 17.8979 89.8672 17.9398C89.8889 17.9817 89.9002 18.0287 89.9 18.0765C89.9003 18.1232 89.889 18.1693 89.8672 18.2101C89.8454 18.2508 89.8139 18.2849 89.7758 18.3089L88.5744 19.0355C88.5379 19.0617 88.4943 19.0744 88.4502 19.0718Z" fill="white" fill-opacity="0.2"/>
<path d="M63.9813 33.9352C63.9364 33.9341 63.8924 33.9208 63.8537 33.8966C63.815 33.8725 63.7829 33.8382 63.7604 33.7972C63.7433 33.7663 63.7322 33.7321 63.7277 33.6966C63.7233 33.6611 63.7257 33.6251 63.7347 33.5906C63.7437 33.5561 63.7592 33.5238 63.7802 33.4957C63.8012 33.4675 63.8273 33.4441 63.8571 33.4267L66.2804 31.9374C66.3098 31.9194 66.3423 31.9077 66.376 31.9031C66.4098 31.8984 66.444 31.9009 66.4768 31.9104C66.5096 31.9199 66.5403 31.9361 66.567 31.9582C66.5938 31.9803 66.616 32.0079 66.6326 32.0391C66.6497 32.07 66.6608 32.1042 66.6652 32.1397C66.6696 32.1752 66.6673 32.2113 66.6583 32.2458C66.6493 32.2803 66.6338 32.3126 66.6128 32.3407C66.5918 32.3688 66.5656 32.3923 66.5359 32.4096L64.0918 33.8989C64.0578 33.9189 64.0201 33.9313 63.9813 33.9352ZM68.8764 30.964C68.8313 30.9635 68.7871 30.9505 68.7483 30.9263C68.7094 30.9021 68.6774 30.8674 68.6555 30.8259C68.6371 30.7957 68.6248 30.7619 68.6193 30.7265C68.6139 30.6911 68.6154 30.6549 68.6239 30.6202C68.6323 30.5854 68.6474 30.5529 68.6683 30.5245C68.6892 30.4962 68.7154 30.4727 68.7452 30.4554L71.1962 29.0025C71.2257 28.9848 71.2582 28.9735 71.2918 28.969C71.3255 28.9646 71.3596 28.9672 71.3923 28.9766C71.425 28.986 71.4556 29.0022 71.4824 29.0241C71.5091 29.046 71.5316 29.0732 71.5483 29.1042C71.5651 29.1352 71.5759 29.1694 71.5801 29.2048C71.5844 29.2402 71.5819 29.2761 71.5729 29.3105C71.564 29.3449 71.5486 29.3771 71.5278 29.4053C71.507 29.4335 71.4811 29.457 71.4517 29.4747L69.0076 30.9276C68.9669 30.9498 68.9222 30.9622 68.8764 30.964ZM73.7715 27.9927C73.7255 27.9921 73.6804 27.9791 73.6405 27.9549C73.6006 27.9308 73.5672 27.8962 73.5436 27.8547C73.5265 27.8237 73.5154 27.7895 73.511 27.7541C73.5066 27.7186 73.5089 27.6825 73.5179 27.648C73.5269 27.6135 73.5424 27.5812 73.5634 27.5531C73.5844 27.525 73.6106 27.5015 73.6403 27.4842L76.0844 26.0167C76.1452 25.9818 76.2164 25.9729 76.2833 25.9919C76.3501 26.0108 76.4075 26.0561 76.4434 26.1184C76.4606 26.1493 76.4717 26.1835 76.4761 26.219C76.4805 26.2545 76.4781 26.2905 76.4691 26.325C76.4601 26.3595 76.4447 26.3918 76.4236 26.4199C76.4026 26.4481 76.3765 26.4715 76.3468 26.4889L73.875 27.9564C73.8434 27.9762 73.8081 27.9886 73.7715 27.9927ZM78.6597 25.0214C78.6015 25.0236 78.5443 25.0048 78.4977 24.9681C78.451 24.9314 78.4177 24.8791 78.4032 24.8197C78.3887 24.7604 78.3939 24.6976 78.4179 24.6418C78.442 24.586 78.4834 24.5405 78.5354 24.5129L80.9795 23.0599C81.0088 23.0419 81.0413 23.0302 81.0751 23.0256C81.1088 23.0209 81.143 23.0234 81.1758 23.0329C81.2086 23.0424 81.2393 23.0586 81.2661 23.0807C81.2928 23.1028 81.3151 23.1303 81.3316 23.1616C81.3487 23.1925 81.3598 23.2267 81.3642 23.2622C81.3687 23.2977 81.3663 23.3338 81.3573 23.3683C81.3483 23.4028 81.3328 23.4351 81.3118 23.4632C81.2908 23.4913 81.2647 23.5148 81.2349 23.5321L78.7908 24.9851C78.7506 25.0082 78.7055 25.0207 78.6597 25.0214ZM83.5409 22.0501C83.495 22.0489 83.4502 22.0356 83.4104 22.0115C83.3706 21.9874 83.3372 21.9532 83.3131 21.9121C83.2959 21.8812 83.2848 21.847 83.2804 21.8115C83.276 21.776 83.2784 21.74 83.2874 21.7055C83.2964 21.671 83.3118 21.6387 83.3328 21.6106C83.3539 21.5824 83.38 21.559 83.4097 21.5416L85.8607 20.0523C85.9205 20.0178 85.9906 20.0092 86.0564 20.0282C86.1221 20.0471 86.1782 20.0923 86.2128 20.154C86.23 20.1849 86.2411 20.2191 86.2455 20.2546C86.2499 20.2901 86.2476 20.3262 86.2385 20.3607C86.2295 20.3952 86.2141 20.4275 86.1931 20.4556C86.1721 20.4837 86.1459 20.5072 86.1162 20.5245L83.6721 22.0138C83.6315 22.0359 83.5867 22.0483 83.5409 22.0501Z" fill="white" fill-opacity="0.2"/>
<path d="M60.3423 28.6686L42.9092 18.0767V18.992L60.3423 29.584L77.7753 18.992V18.0767L60.3423 28.6686Z" fill="white" fill-opacity="0.2"/>
<path d="M31.069 100.016C30.9994 100.016 30.9327 99.9865 30.8835 99.9348C30.8343 99.883 30.8066 99.8128 30.8066 99.7396V99.2964C30.8066 99.2605 30.8135 99.2249 30.8267 99.1918C30.84 99.1588 30.8594 99.1288 30.8839 99.1037C30.9083 99.0787 30.9373 99.059 30.9691 99.046C31.0009 99.0329 31.0349 99.0267 31.069 99.0276C31.1028 99.0266 31.1364 99.0329 31.1679 99.0461C31.1993 99.0592 31.2278 99.079 31.2518 99.1041C31.2757 99.1293 31.2945 99.1593 31.307 99.1924C31.3195 99.2254 31.3254 99.2608 31.3245 99.2964V99.7396C31.3254 99.7755 31.3195 99.8112 31.307 99.8447C31.2946 99.8781 31.2759 99.9086 31.2521 99.9344C31.2283 99.9601 31.1998 99.9805 31.1684 99.9945C31.1369 100.008 31.1031 100.016 31.069 100.016ZM31.069 96.6666C30.9994 96.6666 30.9327 96.6375 30.8835 96.5857C30.8343 96.534 30.8066 96.4637 30.8066 96.3905V93.4846C30.8066 93.4487 30.8135 93.4132 30.8267 93.3801C30.84 93.347 30.8594 93.317 30.8839 93.292C30.9083 93.2669 30.9373 93.2473 30.9691 93.2342C31.0009 93.2211 31.0349 93.2149 31.069 93.2158C31.1028 93.2148 31.1364 93.2211 31.1679 93.2343C31.1993 93.2474 31.2278 93.2672 31.2518 93.2923C31.2757 93.3175 31.2945 93.3475 31.307 93.3806C31.3195 93.4137 31.3254 93.4491 31.3245 93.4846V96.3905C31.3254 96.4264 31.3195 96.4622 31.307 96.4956C31.2946 96.5291 31.2759 96.5596 31.2521 96.5853C31.2283 96.611 31.1998 96.6315 31.1684 96.6455C31.1369 96.6594 31.1031 96.6666 31.069 96.6666ZM31.069 90.8548C30.9994 90.8548 30.9327 90.8257 30.8835 90.7739C30.8343 90.7222 30.8066 90.652 30.8066 90.5787V87.6728C30.8066 87.6369 30.8135 87.6014 30.8267 87.5683C30.84 87.5352 30.8594 87.5052 30.8839 87.4802C30.9083 87.4551 30.9373 87.4355 30.9691 87.4224C31.0009 87.4093 31.0349 87.4031 31.069 87.4041C31.1028 87.4031 31.1364 87.4093 31.1679 87.4225C31.1993 87.4356 31.2278 87.4554 31.2518 87.4806C31.2757 87.5057 31.2945 87.5358 31.307 87.5688C31.3195 87.6019 31.3254 87.6373 31.3245 87.6728V90.5787C31.3254 90.6146 31.3195 90.6504 31.307 90.6838C31.2946 90.7173 31.2759 90.7478 31.2521 90.7735C31.2283 90.7993 31.1998 90.8197 31.1684 90.8337C31.1369 90.8476 31.1031 90.8548 31.069 90.8548ZM31.069 85.043C30.9994 85.043 30.9327 85.0139 30.8835 84.9622C30.8343 84.9104 30.8066 84.8402 30.8066 84.767V81.8611C30.8066 81.8252 30.8135 81.7896 30.8267 81.7565C30.84 81.7234 30.8594 81.6934 30.8839 81.6684C30.9083 81.6433 30.9373 81.6237 30.9691 81.6106C31.0009 81.5975 31.0349 81.5913 31.069 81.5923C31.1028 81.5913 31.1364 81.5975 31.1679 81.6107C31.1993 81.6238 31.2278 81.6436 31.2518 81.6688C31.2757 81.6939 31.2945 81.724 31.307 81.757C31.3195 81.7901 31.3254 81.8255 31.3245 81.8611V84.767C31.3254 84.8029 31.3195 84.8386 31.307 84.8721C31.2946 84.9055 31.2759 84.936 31.2521 84.9617C31.2283 84.9875 31.1998 85.0079 31.1684 85.0219C31.1369 85.0358 31.1031 85.043 31.069 85.043ZM31.069 79.2312C30.9994 79.2312 30.9327 79.2022 30.8835 79.1504C30.8343 79.0986 30.8066 79.0284 30.8066 78.9552V76.0493C30.8066 76.0134 30.8135 75.9778 30.8267 75.9447C30.84 75.9116 30.8594 75.8817 30.8839 75.8566C30.9083 75.8315 30.9373 75.8119 30.9691 75.7988C31.0009 75.7858 31.0349 75.7795 31.069 75.7805C31.1028 75.7795 31.1364 75.7858 31.1679 75.7989C31.1993 75.8121 31.2278 75.8318 31.2518 75.857C31.2757 75.8821 31.2945 75.9122 31.307 75.9452C31.3195 75.9783 31.3254 76.0137 31.3245 76.0493V78.9552C31.3254 78.9911 31.3195 79.0268 31.307 79.0603C31.2946 79.0937 31.2759 79.1242 31.2521 79.15C31.2283 79.1757 31.1998 79.1961 31.1684 79.2101C31.1369 79.2241 31.1031 79.2313 31.069 79.2312ZM31.069 73.4195C30.9994 73.4195 30.9327 73.3904 30.8835 73.3386C30.8343 73.2868 30.8066 73.2166 30.8066 73.1434V70.2375C30.8066 70.2016 30.8135 70.166 30.8267 70.1329C30.84 70.0998 30.8594 70.0699 30.8839 70.0448C30.9083 70.0198 30.9373 70.0001 30.9691 69.987C31.0009 69.974 31.0349 69.9677 31.069 69.9687C31.1028 69.9677 31.1364 69.974 31.1679 69.9871C31.1993 70.0003 31.2278 70.02 31.2518 70.0452C31.2757 70.0704 31.2945 70.1004 31.307 70.1335C31.3195 70.1665 31.3254 70.2019 31.3245 70.2375V73.1434C31.3254 73.1793 31.3195 73.215 31.307 73.2485C31.2946 73.2819 31.2759 73.3124 31.2521 73.3382C31.2283 73.3639 31.1998 73.3844 31.1684 73.3983C31.1369 73.4123 31.1031 73.4195 31.069 73.4195ZM31.069 67.6077C30.9994 67.6077 30.9327 67.5786 30.8835 67.5268C30.8343 67.475 30.8066 67.4048 30.8066 67.3316V64.4257C30.8066 64.3898 30.8135 64.3542 30.8267 64.3211C30.84 64.2881 30.8594 64.2581 30.8839 64.233C30.9083 64.208 30.9373 64.1883 30.9691 64.1753C31.0009 64.1622 31.0349 64.1559 31.069 64.1569C31.1028 64.1559 31.1364 64.1622 31.1679 64.1753C31.1993 64.1885 31.2278 64.2083 31.2518 64.2334C31.2757 64.2586 31.2945 64.2886 31.307 64.3217C31.3195 64.3547 31.3254 64.3901 31.3245 64.4257V67.3316C31.3254 67.3675 31.3195 67.4032 31.307 67.4367C31.2946 67.4702 31.2759 67.5007 31.2521 67.5264C31.2283 67.5521 31.1998 67.5726 31.1684 67.5865C31.1369 67.6005 31.1031 67.6077 31.069 67.6077ZM31.069 61.7959C30.9994 61.7959 30.9327 61.7668 30.8835 61.715C30.8343 61.6633 30.8066 61.593 30.8066 61.5198V58.6139C30.8066 58.578 30.8135 58.5425 30.8267 58.5094C30.84 58.4763 30.8594 58.4463 30.8839 58.4212C30.9083 58.3962 30.9373 58.3765 30.9691 58.3635C31.0009 58.3504 31.0349 58.3442 31.069 58.3451C31.1028 58.3441 31.1364 58.3504 31.1679 58.3636C31.1993 58.3767 31.2278 58.3965 31.2518 58.4216C31.2757 58.4468 31.2945 58.4768 31.307 58.5099C31.3195 58.543 31.3254 58.5784 31.3245 58.6139V61.5198C31.3254 61.5557 31.3195 61.5915 31.307 61.6249C31.2946 61.6584 31.2759 61.6889 31.2521 61.7146C31.2283 61.7403 31.1998 61.7608 31.1684 61.7747C31.1369 61.7887 31.1031 61.7959 31.069 61.7959ZM31.069 55.9841C30.9994 55.9841 30.9327 55.955 30.8835 55.9032C30.8343 55.8515 30.8066 55.7813 30.8066 55.708V52.8021C30.8066 52.7662 30.8135 52.7307 30.8267 52.6976C30.84 52.6645 30.8594 52.6345 30.8839 52.6095C30.9083 52.5844 30.9373 52.5648 30.9691 52.5517C31.0009 52.5386 31.0349 52.5324 31.069 52.5334C31.1028 52.5323 31.1364 52.5386 31.1679 52.5518C31.1993 52.5649 31.2278 52.5847 31.2518 52.6098C31.2757 52.635 31.2945 52.665 31.307 52.6981C31.3195 52.7312 31.3254 52.7666 31.3245 52.8021V55.708C31.3254 55.7439 31.3195 55.7797 31.307 55.8131C31.2946 55.8466 31.2759 55.8771 31.2521 55.9028C31.2283 55.9286 31.1998 55.949 31.1684 55.963C31.1369 55.9769 31.1031 55.9841 31.069 55.9841ZM31.069 50.1723C30.9994 50.1723 30.9327 50.1432 30.8835 50.0915C30.8343 50.0397 30.8066 49.9695 30.8066 49.8963V46.9904C30.8066 46.9544 30.8135 46.9189 30.8267 46.8858C30.84 46.8527 30.8594 46.8227 30.8839 46.7977C30.9083 46.7726 30.9373 46.753 30.9691 46.7399C31.0009 46.7268 31.0349 46.7206 31.069 46.7216C31.1028 46.7206 31.1364 46.7268 31.1679 46.74C31.1993 46.7531 31.2278 46.7729 31.2518 46.7981C31.2757 46.8232 31.2945 46.8533 31.307 46.8863C31.3195 46.9194 31.3254 46.9548 31.3245 46.9904V49.8963C31.3254 49.9322 31.3195 49.9679 31.307 50.0014C31.2946 50.0348 31.2759 50.0653 31.2521 50.091C31.2283 50.1168 31.1998 50.1372 31.1684 50.1512C31.1369 50.1651 31.1031 50.1723 31.069 50.1723ZM31.069 44.3605C30.9994 44.3605 30.9327 44.3314 30.8835 44.2797C30.8343 44.2279 30.8066 44.1577 30.8066 44.0845V41.1786C30.8066 41.1427 30.8135 41.1071 30.8267 41.074C30.84 41.0409 30.8594 41.011 30.8839 40.9859C30.9083 40.9608 30.9373 40.9412 30.9691 40.9281C31.0009 40.915 31.0349 40.9088 31.069 40.9098C31.1028 40.9088 31.1364 40.915 31.1679 40.9282C31.1993 40.9414 31.2278 40.9611 31.2518 40.9863C31.2757 41.0114 31.2945 41.0415 31.307 41.0745C31.3195 41.1076 31.3254 41.143 31.3245 41.1786V44.0845C31.3254 44.1204 31.3195 44.1561 31.307 44.1896C31.2946 44.223 31.2759 44.2535 31.2521 44.2793C31.2283 44.305 31.1998 44.3254 31.1684 44.3394C31.1369 44.3534 31.1031 44.3605 31.069 44.3605ZM31.069 38.5487C30.9994 38.5487 30.9327 38.5197 30.8835 38.4679C30.8343 38.4161 30.8066 38.3459 30.8066 38.2727V36.224C30.8072 36.1747 30.8203 36.1265 30.8446 36.0843C30.8689 36.0422 30.9035 36.0076 30.9447 35.9843L31.6351 35.5702C31.6947 35.5346 31.7652 35.5253 31.8312 35.5443C31.8973 35.5634 31.9534 35.6093 31.9873 35.6719C32.0211 35.7345 32.03 35.8087 32.0119 35.8782C31.9937 35.9477 31.9501 36.0068 31.8906 36.0424L31.3106 36.3839V38.2727C31.3125 38.3428 31.2883 38.4109 31.2432 38.4624C31.198 38.514 31.1355 38.545 31.069 38.5487ZM34.1897 34.6549C34.1434 34.6557 34.0977 34.6434 34.0576 34.619C34.0175 34.5947 33.9844 34.5594 33.9619 34.5168C33.9447 34.4859 33.9336 34.4517 33.9292 34.4162C33.9248 34.3808 33.9271 34.3447 33.9361 34.3102C33.9452 34.2757 33.9606 34.2434 33.9816 34.2153C34.0026 34.1871 34.0288 34.1637 34.0585 34.1463L36.4681 32.7297C36.4975 32.7117 36.53 32.7 36.5637 32.6953C36.5974 32.6907 36.6317 32.6932 36.6645 32.7026C36.6973 32.7121 36.7279 32.7284 36.7547 32.7505C36.7814 32.7726 36.8037 32.8001 36.8202 32.8314C36.8373 32.8623 36.8484 32.8965 36.8529 32.932C36.8573 32.9675 36.8549 33.0035 36.8459 33.038C36.8369 33.0725 36.8214 33.1048 36.8004 33.133C36.7794 33.1611 36.7533 33.1845 36.7235 33.2019L34.314 34.6549C34.2644 34.6702 34.2117 34.6702 34.1621 34.6549H34.1897ZM39.0226 31.8216C38.9766 31.821 38.9315 31.808 38.8916 31.7838C38.8517 31.7597 38.8184 31.7252 38.7948 31.6836C38.7776 31.6527 38.7665 31.6185 38.7621 31.583C38.7577 31.5475 38.7601 31.5115 38.7691 31.4769C38.7781 31.4424 38.7935 31.4102 38.8146 31.382C38.8356 31.3539 38.8617 31.3304 38.8915 31.3131L41.301 29.8601C41.3616 29.8262 41.4324 29.8187 41.4982 29.839C41.564 29.8594 41.6196 29.9061 41.6531 29.9691C41.6703 30 41.6814 30.0342 41.6858 30.0697C41.6902 30.1052 41.6878 30.1412 41.6788 30.1757C41.6698 30.2102 41.6544 30.2425 41.6334 30.2707C41.6123 30.2988 41.5862 30.3222 41.5565 30.3396L39.1469 31.7562C39.1006 31.7987 39.0425 31.8242 38.9812 31.8289L39.0226 31.8216ZM43.8556 28.9811C43.8095 28.9805 43.7644 28.9675 43.7245 28.9433C43.6847 28.9192 43.6513 28.8846 43.6277 28.8431C43.6106 28.8122 43.5995 28.778 43.5951 28.7425C43.5907 28.707 43.593 28.6709 43.602 28.6364C43.611 28.6019 43.6265 28.5697 43.6475 28.5415C43.6685 28.5134 43.6947 28.4899 43.7244 28.4726L46.134 27.0196C46.1956 26.9854 46.2674 26.9776 46.3343 26.9979C46.4013 27.0182 46.4582 27.0651 46.493 27.1286C46.5252 27.1923 46.5324 27.2668 46.513 27.3361C46.4937 27.4053 46.4493 27.4638 46.3894 27.4991L43.9798 28.952C43.9247 28.9822 43.8616 28.9924 43.8003 28.9811H43.8556Z" fill="white" fill-opacity="0.2"/>
<defs>
<radialGradient id="paint0_radial_307_2486" cx="0" cy="0" r="1" gradientUnits="userSpaceOnUse" gradientTransform="translate(67.5968 52.0765) rotate(121.68) scale(13.5607 21.8053)">
<stop stop-color="#C0BFF6"/>
<stop offset="1" stop-color="#393091"/>
</radialGradient>
<linearGradient id="paint1_linear_307_2486" x1="62.9658" y1="45.4512" x2="59.9113" y2="33.5872" gradientUnits="userSpaceOnUse">
<stop stop-color="#42E6DF"/>
<stop offset="0.14" stop-color="#40B6CB"/>
<stop offset="0.27" stop-color="#3E8DB9"/>
<stop offset="0.41" stop-color="#3C6BAA"/>
<stop offset="0.55" stop-color="#3B519F"/>
<stop offset="0.69" stop-color="#3A3F97"/>
<stop offset="0.84" stop-color="#393493"/>
<stop offset="1" stop-color="#393091"/>
</linearGradient>
<radialGradient id="paint2_radial_307_2486" cx="0" cy="0" r="1" gradientUnits="userSpaceOnUse" gradientTransform="translate(125.293 32.3444) rotate(11.9773) scale(42.5459 44.5811)">
<stop stop-color="#C0BFF6"/>
<stop offset="1" stop-color="#393091"/>
</radialGradient>
<linearGradient id="paint3_linear_307_2486" x1="85.1205" y1="62.928" x2="93.62" y2="50.2437" gradientUnits="userSpaceOnUse">
<stop stop-color="#42E6DF"/>
<stop offset="0.14" stop-color="#40B6CB"/>
<stop offset="0.27" stop-color="#3E8DB9"/>
<stop offset="0.41" stop-color="#3C6BAA"/>
<stop offset="0.55" stop-color="#3B519F"/>
<stop offset="0.69" stop-color="#3A3F97"/>
<stop offset="0.84" stop-color="#393493"/>
<stop offset="1" stop-color="#393091"/>
</linearGradient>
<radialGradient id="paint4_radial_307_2486" cx="0" cy="0" r="1" gradientUnits="userSpaceOnUse" gradientTransform="translate(119.008 66.4839) scale(32.7747 46.8659)">
<stop stop-color="#C0BFF6"/>
<stop offset="1" stop-color="#393091"/>
</radialGradient>
<linearGradient id="paint5_linear_307_2486" x1="107.752" y1="97.8408" x2="107.752" y2="50.998" gradientUnits="userSpaceOnUse">
<stop stop-color="#42E6DF"/>
<stop offset="0.14" stop-color="#40B6CB"/>
<stop offset="0.27" stop-color="#3E8DB9"/>
<stop offset="0.41" stop-color="#3C6BAA"/>
<stop offset="0.55" stop-color="#3B519F"/>
<stop offset="0.69" stop-color="#3A3F97"/>
<stop offset="0.84" stop-color="#393493"/>
<stop offset="1" stop-color="#393091"/>
</linearGradient>
<radialGradient id="paint6_radial_307_2486" cx="0" cy="0" r="1" gradientUnits="userSpaceOnUse" gradientTransform="translate(119.615 37.1318) scale(32.7949 34.5075)">
<stop stop-color="#C0BFF6"/>
<stop offset="1" stop-color="#393091"/>
</radialGradient>
<linearGradient id="paint7_linear_307_2486" x1="104.813" y1="60.3716" x2="110.778" y2="20.0198" gradientUnits="userSpaceOnUse">
<stop stop-color="#42E6DF"/>
<stop offset="0.14" stop-color="#40B6CB"/>
<stop offset="0.27" stop-color="#3E8DB9"/>
<stop offset="0.41" stop-color="#3C6BAA"/>
<stop offset="0.55" stop-color="#3B519F"/>
<stop offset="0.69" stop-color="#3A3F97"/>
<stop offset="0.84" stop-color="#393493"/>
<stop offset="1" stop-color="#393091"/>
</linearGradient>
<radialGradient id="paint8_radial_307_2486" cx="0" cy="0" r="1" gradientUnits="userSpaceOnUse" gradientTransform="translate(131.83 63.5664) rotate(11.5587) scale(15.431 16.1737)">
<stop stop-color="#C0BFF6"/>
<stop offset="1" stop-color="#393091"/>
</radialGradient>
<linearGradient id="paint9_linear_307_2486" x1="121.508" y1="73.2394" x2="133.846" y2="64.6626" gradientUnits="userSpaceOnUse">
<stop stop-color="#42E6DF"/>
<stop offset="0.14" stop-color="#40B6CB"/>
<stop offset="0.27" stop-color="#3E8DB9"/>
<stop offset="0.41" stop-color="#3C6BAA"/>
<stop offset="0.55" stop-color="#3B519F"/>
<stop offset="0.69" stop-color="#3A3F97"/>
<stop offset="0.84" stop-color="#393493"/>
<stop offset="1" stop-color="#393091"/>
</linearGradient>
<radialGradient id="paint10_radial_307_2486" cx="0" cy="0" r="1" gradientUnits="userSpaceOnUse" gradientTransform="translate(143.05 89.9086) rotate(7.24861) scale(13.0659 22.6245)">
<stop stop-color="#C0BFF6"/>
<stop offset="1" stop-color="#393091"/>
</radialGradient>
<linearGradient id="paint11_linear_307_2486" x1="129.151" y1="95.2536" x2="139.285" y2="96.4364" gradientUnits="userSpaceOnUse">
<stop stop-color="#42E6DF"/>
<stop offset="0.14" stop-color="#40B6CB"/>
<stop offset="0.27" stop-color="#3E8DB9"/>
<stop offset="0.41" stop-color="#3C6BAA"/>
<stop offset="0.55" stop-color="#3B519F"/>
<stop offset="0.69" stop-color="#3A3F97"/>
<stop offset="0.84" stop-color="#393493"/>
<stop offset="1" stop-color="#393091"/>
</linearGradient>
</defs>
</svg>
